<?xml version="1.0" encoding="utf-8" standalone="yes"?>
<!DOCTYPE svg PUBLIC "-//W3C//DTD SVG 1.1//EN" "http://www.w3.org/Graphics/SVG/1.1/DTD/svg11.dtd">
<svg style="fill:none;stroke:none;fill-rule:evenodd;clip-rule:evenodd;stroke-linecap:round;stroke-linejoin:round;stroke-miterlimit:1.5;" version="1.1" xmlns="http://www.w3.org/2000/svg" xmlns:xlink="http://www.w3.org/1999/xlink" width="792" height="612" viewBox="0 0 792 612"><style class="text-font-style fontImports" data-font-family="Roboto">@import url(https://fonts.googleapis.com/css2?family=Roboto:wght@400;700&amp;amp;display=block);</style><g id="items" style="isolation: isolate"><g id="blend" style="mix-blend-mode: normal"><g id="g-root-cp_0_g-0_dcz5beyrk26d-fill" data-item-order="-383887" transform="translate(254, 326)"></g><g id="g-root-he_25416yrk0lj-fill" data-item-order="-383813" transform="translate(326, 164)"></g><g id="g-root-he_25416yrk0ll-fill" data-item-order="-383811" transform="translate(326, 272)"></g><g id="g-root-he_1unfnvuyrk16r-fill" data-item-order="-383809" transform="translate(326, 326)"></g><g id="g-root-he_1unfnvuyrk16t-fill" data-item-order="-383807" transform="translate(326, 326)"></g><g id="g-root-tx__1unfnvuyrk16u-fill" data-item-order="0" transform="translate(254, 38)"><g id="tx__1unfnvuyrk16u-fill-merged" stroke="none" fill="#484848" fill-opacity="1"><g><text style="font: bold 25px Roboto, sans-serif; white-space: pre;" transform="translate(142, 28)" font-weight="bold" font-size="25px" font-family="Roboto, sans-serif"><tspan x="-125" y="14.86" dominant-baseline="ideographic">跨院所轉診與資料互通</tspan></text></g></g></g><g id="g-root-ic_spre_4g36wayrlfr4-fill" data-item-order="0" transform="translate(434, 146)"></g><g id="g-root-tx__zs6u22yrk0ee-fill" data-item-order="0" transform="translate(482, 122)"><g id="tx__zs6u22yrk0ee-fill-merged" stroke="none" fill="#7862d1" fill-opacity="1"><g><text style="font: bold 20px Roboto, sans-serif; white-space: pre;" transform="translate(10, 22)" font-weight="bold" font-size="20px" font-family="Roboto, sans-serif"><tspan x="2" y="11.61" dominant-baseline="ideographic">轉換資料</tspan></text></g></g></g><g id="g-root-tx_fhirbund_mgqboqyrk1zb-fill" data-item-order="0" transform="translate(482, 158)"><g id="tx_fhirbund_mgqboqyrk1zb-fill-merged" stroke="none" fill="#7862d1" fill-opacity="1"><g><text style="font: 15px Roboto, sans-serif; white-space: pre;" transform="translate(10, 34)" font-size="15px" font-family="Roboto, sans-serif"><tspan x="2" y="-0.64" dominant-baseline="ideographic">將病患資料轉換為 FHIR Bundle 以便</tspan><tspan x="2" y="17.36" dominant-baseline="ideographic">傳輸。</tspan></text></g></g></g><g id="g-root-ic_face_141548ayrk16v-fill" data-item-order="0" transform="translate(110, 242)"></g><g id="g-root-ic_hier_vcdbxmyrlekj-fill" data-item-order="0" transform="translate(434, 254)"></g><g id="g-root-tx__1qduwmiyrlgy1-fill" data-item-order="0" transform="translate(482, 230)"><g id="tx__1qduwmiyrlgy1-fill-merged" stroke="none" fill="#484848" fill-opacity="1"><g><text style="font: bold 20px Roboto, sans-serif; white-space: pre;" transform="translate(10, 22)" font-weight="bold" font-size="20px" font-family="Roboto, sans-serif"><tspan x="2" y="11.61" dominant-baseline="ideographic">傳輸資料</tspan></text></g></g></g><g id="g-root-tx_fhir_1d30vcayrlfd6-fill" data-item-order="0" transform="translate(482, 266)"><g id="tx_fhir_1d30vcayrlfd6-fill-merged" stroke="none" fill="#484848" fill-opacity="1"><g><text style="font: 15px Roboto, sans-serif; white-space: pre;" transform="translate(10, 34)" font-size="15px" font-family="Roboto, sans-serif"><tspan x="2" y="-0.64" dominant-baseline="ideographic">使用 FHIR 交換平台將資料傳送至接</tspan><tspan x="2" y="17.36" dominant-baseline="ideographic">收院所。</tspan></text></g></g></g><g id="g-root-ic_cros_v6r25myrmvpi-fill" data-item-order="0" transform="translate(434, 362)"></g><g id="g-root-tx__1lt1lt6yrmvpg-fill" data-item-order="0" transform="translate(482, 338)"><g id="tx__1lt1lt6yrmvpg-fill-merged" stroke="none" fill="#484848" fill-opacity="1"><g><text style="font: bold 20px Roboto, sans-serif; white-space: pre;" transform="translate(10, 22)" font-weight="bold" font-size="20px" font-family="Roboto, sans-serif"><tspan x="2" y="11.61" dominant-baseline="ideographic">解析資料</tspan></text></g></g></g><g id="g-root-tx__18i7kiyyrmu4l-fill" data-item-order="0" transform="translate(482, 374)"><g id="tx__18i7kiyyrmu4l-fill-merged" stroke="none" fill="#484848" fill-opacity="1"><g><text style="font: 15px Roboto, sans-serif; white-space: pre;" transform="translate(10, 34)" font-size="15px" font-family="Roboto, sans-serif"><tspan x="2" y="-0.64" dominant-baseline="ideographic">接收院所解析資料並呈現於臨床介</tspan><tspan x="2" y="17.36" dominant-baseline="ideographic">面。</tspan></text></g></g></g><g id="g-root-ic_2_meuwfeyrmuip-fill" data-item-order="0" transform="translate(434, 470)"></g><g id="g-root-tx__1hgyy7eyrmtqf-fill" data-item-order="0" transform="translate(482, 446)"><g id="tx__1hgyy7eyrmtqf-fill-merged" stroke="none" fill="#484848" fill-opacity="1"><g><text style="font: bold 20px Roboto, sans-serif; white-space: pre;" transform="translate(10, 22)" font-weight="bold" font-size="20px" font-family="Roboto, sans-serif"><tspan x="2" y="11.61" dominant-baseline="ideographic">使用資料</tspan></text></g></g></g><g id="g-root-tx__145ifu2yrmvbc-fill" data-item-order="0" transform="translate(482, 482)"><g id="tx__145ifu2yrmvbc-fill-merged" stroke="none" fill="#484848" fill-opacity="1"><g><text style="font: 15px Roboto, sans-serif; white-space: pre;" transform="translate(10, 34)" font-size="15px" font-family="Roboto, sans-serif"><tspan x="2" y="-0.64" dominant-baseline="ideographic">治療師使用過往量表進行治療決策並</tspan><tspan x="2" y="17.36" dominant-baseline="ideographic">新增追蹤紀錄。</tspan></text></g></g></g><g id="g-root-cp_0_g-0_dcz5beyrk26d-stroke" data-item-order="-383887" transform="translate(254, 326)"><g id="cp_0_g-0_dcz5beyrk26d-stroke" fill="none" stroke-linecap="round" stroke-linejoin="round" stroke-miterlimit="4" stroke="#484848" stroke-width="2" stroke-opacity="1"><g><path d="M 82 10L 10 10"></path></g></g></g><g id="g-root-he_25416yrk0lj-stroke" data-item-order="-383813" transform="translate(326, 164)"><g id="he_25416yrk0lj-stroke" fill="none" stroke-linecap="round" stroke-linejoin="round" stroke-miterlimit="4" stroke="#808080" stroke-width="2" stroke-opacity="1"><g><path d="M 10 172L 46 172C 52.627418 172.000005 58.000002 166.627422 58.000001 160.000004L 58 22C 58.000001 15.372583 63.372585 10 70.000002 10L 106 10"></path></g></g></g><g id="g-root-he_25416yrk0ll-stroke" data-item-order="-383811" transform="translate(326, 272)"><g id="he_25416yrk0ll-stroke" fill="none" stroke-linecap="round" stroke-linejoin="round" stroke-miterlimit="4" stroke="#808080" stroke-width="2" stroke-opacity="1"><g><path d="M 10 64L 46 64C 52.627418 64.000002 58.000002 58.627419 58.000001 52.000001L 58 22C 58.000001 15.372583 63.372585 10 70.000002 10L 106 10"></path></g></g></g><g id="g-root-he_1unfnvuyrk16r-stroke" data-item-order="-383809" transform="translate(326, 326)"><g id="he_1unfnvuyrk16r-stroke" fill="none" stroke-linecap="round" stroke-linejoin="round" stroke-miterlimit="4" stroke="#808080" stroke-width="2" stroke-opacity="1"><g><path d="M 10 10L 46 10C 52.627418 10 58.000002 15.372583 58.000001 22L 58 52C 58.000001 58.627419 63.372585 64.000002 70.000002 64.000002L 106 64"></path></g></g></g><g id="g-root-he_1unfnvuyrk16t-stroke" data-item-order="-383807" transform="translate(326, 326)"><g id="he_1unfnvuyrk16t-stroke" fill="none" stroke-linecap="round" stroke-linejoin="round" stroke-miterlimit="4" stroke="#808080" stroke-width="2" stroke-opacity="1"><g><path d="M 10 10L 46 10C 52.627418 10 58.000002 15.372583 58.000001 22L 58 160C 58.000001 166.627422 63.372585 172.000005 70.000002 172.000005L 106 172"></path></g></g></g><g id="g-root-tx__1unfnvuyrk16u-stroke" data-item-order="0" transform="translate(254, 38)"></g><g id="g-root-ic_spre_4g36wayrlfr4-stroke" data-item-order="0" transform="translate(434, 146)"><g id="ic_spre_4g36wayrlfr4-stroke" fill="none" stroke-linecap="round" stroke-linejoin="round" stroke-miterlimit="4" stroke="#7862d1" stroke-width="2" stroke-opacity="1"><g><path d="M 21.625 11.125L 11.125 11.125L 11.125 44.875L 21.625 44.875L 21.625 11.125ZM 11.125 22.375L 21.625 22.375M 11.125 33.625L 21.625 33.625M 43.675003 15.175105C 44.425003 15.775105 44.875 16.675076 44.875 17.575075L 44.875 27.77515C 44.875 29.42515 43.525002 30.77515 41.875 30.77515L 31.375 30.77515C 29.724998 30.77515 28.375 29.42515 28.375 27.77515L 28.375 14.27515C 28.375 12.62515 29.724998 11.275147 31.375 11.275147L 37.525002 11.275147C 38.125 11.275147 38.875 11.425092 39.324997 11.87509L 43.675003 15.175105ZM 32.875 16.52515L 38.125 16.52515M 32.875 21.02515L 40.375 21.02515M 32.875 25.52515L 36.625 25.52515M 39.77515 35.425003L 39.77515 38.124851C 39.77515 39.774849 38.425148 41.124851 36.77515 41.124851L 27.92515 41.124851M 27.92515 41.124851L 31.67515 37.374851M 27.92515 41.124851L 31.67515 44.874851"></path></g></g></g><g id="g-root-tx__zs6u22yrk0ee-stroke" data-item-order="0" transform="translate(482, 122)"></g><g id="g-root-tx_fhirbund_mgqboqyrk1zb-stroke" data-item-order="0" transform="translate(482, 158)"></g><g id="g-root-ic_face_141548ayrk16v-stroke" data-item-order="0" transform="translate(110, 242)"><g id="ic_face_141548ayrk16v-stroke" fill="none" stroke-linecap="round" stroke-linejoin="round" stroke-miterlimit="4" stroke="#484848" stroke-width="2" stroke-opacity="1"><g><path d="M 40.5 34.735001C 38 32.235001 33 30.985001 30.5 33.485001M 15.75 39.735001C 15.5 38.735001 15.5 37.735001 15.5 36.485001C 15.5 22.984999 26.5 11.985 40 11.985C 53.5 11.985 64.5 22.984999 64.5 36.485001C 64.5 45.485001 59.75 53.235001 52.5 57.485001M 35.375 66.5C 40.375 64.5 39.4375 60.092503 38.4375 56.092499L 46.397499 53.010002C 48.242733 52.295914 49.207729 50.263824 48.595001 48.3825L 48.595001 48.3825C 48.278126 47.409481 47.574905 46.609673 46.650452 46.170849C 45.725994 45.732029 44.66172 45.692844 43.7075 46.062504L 29.0625 51.737499C 27.8125 52.237503 26.3125 51.237503 26.3125 49.987499L 26.215 47.620003C 26.175064 46.655411 25.736782 45.750603 25.004652 45.121304C 24.272522 44.492001 23.312149 44.194599 22.352501 44.300003L 22.352501 44.299999C 20.587099 44.494942 19.250738 45.98637 19.25 47.762505L 19.25 57.987499C 19.25 64.487503 25.25 69.237503 31.5 67.737495C 31.5 67.737495 34.125 67 35.375 66.5ZM 28.1875 24.735001C 27.669733 24.735001 27.25 24.315268 27.25 23.797501C 27.25 23.279734 27.669733 22.860001 28.1875 22.860001M 28.1875 24.735001C 28.705269 24.735001 29.125 24.315268 29.125 23.797501C 29.125 23.279734 28.705269 22.860001 28.1875 22.860001M 41.5 24.735001C 40.982235 24.735001 40.5625 24.315268 40.5625 23.797501C 40.5625 23.279734 40.982235 22.860001 41.5 22.860001M 41.5 24.735001C 42.017769 24.735001 42.4375 24.315268 42.4375 23.797501C 42.4375 23.279734 42.017769 22.860001 41.5 22.860001"></path></g></g></g><g id="g-root-ic_hier_vcdbxmyrlekj-stroke" data-item-order="0" transform="translate(434, 254)"><g id="ic_hier_vcdbxmyrlekj-stroke" fill="none" stroke-linecap="round" stroke-linejoin="round" stroke-miterlimit="4" stroke="#484848" stroke-width="2" stroke-opacity="1"><g><path d="M 19.75 22.001501C 19.75 24.072567 23.443651 25.751501 28 25.751501C 32.556351 25.751501 36.25 24.072567 36.25 22.001501C 36.25 19.930433 32.556351 18.251499 28 18.251499C 23.443651 18.251499 19.75 19.930433 19.75 22.001501ZM 37.75 13.0015C 37.75 14.244141 39.428932 15.2515 41.5 15.2515C 43.571068 15.2515 45.25 14.244141 45.25 13.0015C 45.25 11.75886 43.571068 10.7515 41.5 10.7515C 39.428932 10.7515 37.75 11.75886 37.75 13.0015ZM 45.25 13L 45.25 17.5C 45.25 18.742001 43.571503 19.75 41.5 19.75C 39.428497 19.75 37.75 18.7435 37.75 17.5L 37.75 13M 10.75 13.0015C 10.75 14.244141 12.428932 15.2515 14.5 15.2515C 16.571068 15.2515 18.25 14.244141 18.25 13.0015C 18.25 11.75886 16.571068 10.7515 14.5 10.7515C 12.428932 10.7515 10.75 11.75886 10.75 13.0015ZM 18.25 13L 18.25 17.5C 18.25 18.742001 16.571501 19.75 14.5 19.75C 12.4285 19.75 10.75 18.7435 10.75 17.5L 10.75 13M 37.75 38.501499C 37.75 39.744141 39.428932 40.751503 41.5 40.751503C 43.571068 40.751503 45.25 39.744141 45.25 38.501503C 45.25 37.258858 43.571068 36.251503 41.5 36.251503C 39.428932 36.251503 37.75 37.258858 37.75 38.501503ZM 45.25 38.5L 45.25 43C 45.25 44.241997 43.571503 45.25 41.5 45.25C 39.428497 45.25 37.75 44.241997 37.75 43L 37.75 38.5M 10.75 38.501499C 10.75 39.744141 12.428932 40.751503 14.5 40.751503C 16.571068 40.751503 18.25 39.744141 18.25 38.501503C 18.25 37.258858 16.571068 36.251503 14.5 36.251503C 12.428932 36.251503 10.75 37.258858 10.75 38.501503ZM 18.25 38.5L 18.25 43C 18.25 44.241997 16.571501 45.25 14.5 45.25C 12.4285 45.25 10.75 44.2435 10.75 43L 10.75 38.5M 36.25 28C 36.25 30.071499 32.5555 31.75 28 31.75C 23.4445 31.75 19.75 30.073 19.75 28M 19.75 22L 19.75 34C 19.75 36.071503 23.4445 37.75 28 37.75C 32.5555 37.75 36.25 36.071503 36.25 34L 36.25 22M 17.963501 18.367001L 20.276501 20.68M 38.036499 18.367001L 35.723499 20.68M 18.032499 37.745499L 20.359001 35.4175M 37.967499 37.745499L 35.640999 35.4175"></path></g></g></g><g id="g-root-tx__1qduwmiyrlgy1-stroke" data-item-order="0" transform="translate(482, 230)"></g><g id="g-root-tx_fhir_1d30vcayrlfd6-stroke" data-item-order="0" transform="translate(482, 266)"></g><g id="g-root-ic_cros_v6r25myrmvpi-stroke" data-item-order="0" transform="translate(434, 362)"><g id="ic_cros_v6r25myrmvpi-stroke" fill="none" stroke-linecap="round" stroke-linejoin="round" stroke-miterlimit="4" stroke="#484848" stroke-width="2" stroke-opacity="1"><g><path d="M 28.562349 15.290005L 12.875035 15.290005C 12.17893 15.290005 11.61463 15.854305 11.61463 16.550409L 11.61463 36.716949C 11.61463 37.412949 12.17893 37.977249 12.875035 37.977249L 43.124802 37.977249C 43.82095 37.977249 44.38525 37.412949 44.38525 36.716949L 44.38525 23.65048M 10 10M 25.478951 37.977249L 22.958185 44.27935M 10 10M 30.520599 37.977249L 33.0415 44.27935M 20.437374 44.27935L 35.562248 44.27935M 10 10M 40.532799 11.720665L 35.996799 11.720665L 35.996799 15.573115L 32.144352 15.573115L 32.144352 20.10907L 35.996799 20.10907L 35.996799 23.961355L 40.532799 23.961355L 40.532799 20.10907L 44.385101 20.10907L 44.385101 15.573115L 40.532799 15.573115L 40.532799 11.720665ZM 10 10M 17.909065 33.844898L 23.00758 28.17145L 26.52655 31.259501L 31.69735 25.8016M 21.68836 20.06254L 16.83004 20.06254M 18.98719 24.493179L 16.829245 24.493179"></path></g></g></g><g id="g-root-tx__1lt1lt6yrmvpg-stroke" data-item-order="0" transform="translate(482, 338)"></g><g id="g-root-tx__18i7kiyyrmu4l-stroke" data-item-order="0" transform="translate(482, 374)"></g><g id="g-root-ic_2_meuwfeyrmuip-stroke" data-item-order="0" transform="translate(434, 470)"><g id="ic_2_meuwfeyrmuip-stroke" fill="none" stroke-linecap="round" stroke-linejoin="round" stroke-miterlimit="4" stroke="#484848" stroke-width="2" stroke-opacity="1"><g><path d="M 10 10M 26.2402 16.499516L 21.074425 16.499516L 21.074425 20.886894L 16.687195 20.886894L 16.687195 26.0527L 21.074425 26.0527L 21.074425 30.439899L 26.2402 30.439899L 26.2402 26.0527L 30.62755 26.0527L 30.62755 20.886894L 26.2402 20.886894L 26.2402 16.499516ZM 27.362801 40.662102L 13.53247 40.662102C 12.93574 40.662102 12.36343 40.425098 11.94148 40.003151C 11.51953 39.5812 11.28247 39.008797 11.28247 38.412102L 11.28247 13.662115C 11.28247 13.065371 11.51953 12.493075 11.94148 12.071125C 12.36343 11.64916 12.93574 11.412109 13.53247 11.412109L 29.476 11.412109C 30.07225 11.412236 30.644199 11.649085 31.066 12.070615L 35.374001 16.378614C 35.795502 16.8004 36.032349 17.37229 36.032501 17.968615L 36.032501 24.161455M 30.62755 44.46595C 30.62755 42.594402 31.371101 40.799351 32.69455 39.476051C 34.017849 38.152599 35.812897 37.40905 37.684452 37.40905C 39.556149 37.40905 41.351051 38.152599 42.6745 39.476051C 43.997952 40.799351 44.741501 42.594402 44.741501 44.46595L 30.62755 44.46595ZM 37.684601 37.409203C 40.282902 37.409203 42.389198 35.302902 42.389198 32.704601C 42.389198 30.1063 40.282902 28 37.684601 28C 35.0863 28 32.979851 30.1063 32.979851 32.704601C 32.979851 35.302902 35.0863 37.409203 37.684601 37.409203Z"></path></g></g></g><g id="g-root-tx__1hgyy7eyrmtqf-stroke" data-item-order="0" transform="translate(482, 446)"></g><g id="g-root-tx__145ifu2yrmvbc-stroke" data-item-order="0" transform="translate(482, 482)"></g></g></g><path id="w3zx7ey7madp" d="M65.283 12.757a.35.35 0 0 0 .584.157l5.203-5.141-6.183 3.523.396 1.461zm-2.216-11.7a.35.35 0 0 0-.522.305v3.111l3.276-1.868-2.754-1.548zm3.728 2.105l-4.25 2.421v2.445l6.391-3.644-2.141-1.222zm4.708 3.303a.35.35 0 0 0 0-.609l-1.592-.9-7.365 4.199v1.782a.35.35 0 0 0 .523.305l8.435-4.777z M44.542 2.513c0-.433.355-.783.792-.783s.792.35.792.783-.355.783-.792.783-.792-.35-.792-.783zm59.171 0c0-.433.355-.783.792-.783s.792.35.792.783-.355.783-.792.783-.792-.35-.792-.783zm-85.951 7.636h-1.27v-.487c-.276.201-.864.609-1.881.609-1.202 0-2.274-.794-2.137-2.078.118-1.106 1.153-1.584 1.848-1.727l2.17-.345c0-.539-.29-.956-1.064-1.006s-1.21.305-1.571 1.017l-1.124-.605c1.218-2.631 5.029-1.764 5.029.414v4.207zm-1.27-2.86c.006.396-.062 1.112-.819 1.59-.587.37-1.841.299-1.903-.395-.049-.555.461-.791.906-.898l1.816-.297zm72.662 2.86h-1.27v-.487c-.276.201-.864.609-1.881.609-1.202 0-2.274-.794-2.137-2.078.118-1.106 1.153-1.584 1.848-1.727l2.17-.345c0-.539-.29-.956-1.064-1.006s-1.21.305-1.571 1.017l-1.124-.605c1.218-2.631 5.029-1.764 5.029.414v4.207zm-1.27-2.86c.006.396-.062 1.112-.82 1.59-.587.37-1.841.299-1.903-.395-.049-.555.461-.791.906-.898l1.816-.297zM99.096 10.149H97.85v-8.45h1.246v4.895l2.68-2.559h1.738l-2.633 2.535 2.715 3.578h-1.556l-2.077-2.707-.867.844v1.863zm6.053-6.114h-1.255v6.113h1.255V4.035zm-59.2 0h-1.255v6.113h1.255V4.035zm5.584 6.113V1.697h1.255v2.695c.361-.346 1-.485 1.47-.485 1.452 0 2.477 1.082 2.457 2.448v3.792h-1.27v-3.68c0-.408-.214-1.339-1.315-1.339-.968 0-1.342.756-1.342 1.339v3.681h-1.255zm-4.76-4.894V4.039h.621a.45.45 0 0 0 .45-.45v-.855h1.251v1.305h1.309v1.215h-1.309v3.109c0 .293.105.664.648.664.365 0 .531-.035.736-.07v1.137s-.361.113-.857.113c-1.398 0-1.777-1.051-1.777-1.788V5.254h-1.071zM36.528 4.039h-1.394l2.191 6.106h1.125l1.234-3.918 1.238 3.918h1.129l2.188-6.106h-1.383l-1.359 3.93-1.256-3.93h-1.124l-1.242 3.957-1.348-3.957zM26.212 7.141c-.02 1.566 1.187 3.129 3.223 3.129 1.566 0 2.383-.918 2.734-1.719L31.172 8c-.315.399-.801 1.094-1.738 1.094-1.145 0-1.825-.781-1.891-1.52h4.625c.074-.284.148-.995-.03-1.559-.336-1.064-1.221-2.102-2.839-2.102s-3.088 1.152-3.088 3.227zm1.363-.75h3.348c-.055-.43-.566-1.301-1.623-1.301a1.79 1.79 0 0 0-1.725 1.301zm-8.758.75c.038 1.758 1.277 3.133 3.145 3.133 1.074 0 1.723-.477 1.961-.672v.547h1.242V1.703h-1.258v2.888c-.414-.36-1.062-.68-1.93-.68-1.91 0-3.198 1.473-3.16 3.23zm1.309-.08c0 1.119.723 1.978 1.836 1.978a1.88 1.88 0 0 0 1.94-1.904c0-1.371-1.011-1.99-1.972-1.99s-1.805.798-1.805 1.916zm76.683-.028C96.771 5.275 95.532 3.9 93.664 3.9c-1.074 0-1.723.477-1.961.672v-.547h-1.242v8.22h1.258V9.583c.414.36 1.063.68 1.93.68 1.91 0 3.198-1.473 3.16-3.23zm-1.309.08c0-1.119-.723-1.978-1.836-1.978a1.88 1.88 0 0 0-1.94 1.904c0 1.371 1.011 1.99 1.972 1.99S95.5 8.231 95.5 7.113zM106.441 10.173V4.036h1.254v.382c.361-.346 1-.485 1.47-.485 1.452 0 2.477 1.082 2.457 2.448v3.792h-1.27V6.492c0-.408-.214-1.339-1.315-1.339-.969 0-1.342.756-1.342 1.339v3.681h-1.254zm-30.383-.021V1.824h1.084l4.215 5.777V1.824h1.32v8.328h-1.094l-4.207-5.796v5.796h-1.319zM5.24 10.149H4V2.377h1.014l2.664 3.597 2.654-3.592h1.03v7.766h-1.256V4.762L7.678 8.068 5.24 4.742v5.407z" transform="translate(20, 578)" fill="#80808088" stroke="none"></path></svg>