<?xml version="1.0" encoding="utf-8" standalone="yes"?>
<!DOCTYPE svg PUBLIC "-//W3C//DTD SVG 1.1//EN" "http://www.w3.org/Graphics/SVG/1.1/DTD/svg11.dtd">
<svg style="fill:none;stroke:none;fill-rule:evenodd;clip-rule:evenodd;stroke-linecap:round;stroke-linejoin:round;stroke-miterlimit:1.5;" version="1.1" xmlns="http://www.w3.org/2000/svg" xmlns:xlink="http://www.w3.org/1999/xlink" width="936" height="864" viewBox="0 0 936 864"><style class="text-font-style fontImports" data-font-family="Shantell Sans">@import url(https://fonts.googleapis.com/css2?family=Shantell+Sans:wght@300..800&amp;amp;display=block);</style><g id="items" style="isolation: isolate"><g id="blend" style="mix-blend-mode: normal"><g id="g-root-cp_6_g-6_1cw5neiyhn8xz-fill" data-item-order="-681974" transform="translate(235.69699096679688, 287.906005859375)"><g id="cp_6_g-6_1cw5neiyhn8xz-fill-merged" stroke="none" fill="#ffd9d8" fill-opacity="1"><g><path d="M59 19.3L47.5 25.2L52.7 45L68 37.2L59 19.3 M52.7 45L113.9 42.5L109.7 22.6L47.5 25.2L52.7 45 M109.7 22.6L14.3 59.5L19.5 78.9L113.9 42.5L109.7 22.6 M19.5 78.9L132.5 61.6L128 42.1L14.3 59.5L19.5 78.9 M128 42.1L5.9 80.3L10.3 99.9L132.5 61.6L128 42.1 M10.3 99.9L139.4 82.6L134.4 63.1L5.9 80.3L10.3 99.9 M134.4 63.1L17.5 108.4L23 127.7L139.4 82.6L134.4 63.1 M23 127.7L138.1 106L133.5 86.5L17.5 108.4L23 127.7 M133.5 86.5L26.6 117.5L29.4 137.5L138.1 106L133.5 86.5 M29.4 137.5L126.9 137.6L124.1 117.6L26.6 117.5L29.4 137.5 M124.1 117.6L56 137.3L61.6 156.5L126.9 137.6L124.1 117.6" fill-rule="nonzero"></path></g></g><g id="cp_6_g-6_1cw5neiyhn8xz-fill-merged" stroke="none" fill="#ffd9d8" fill-opacity="1"><g><path d="M160.5 16.7L153.6 15L134.9 31L155.6 36.1L160.5 16.7 M134.9 31L137 54.7L156.3 45.2L153.6 15L134.9 31 M156.3 45.2L124.4 16.1L110.9 30.8L137 54.7L156.3 45.2 M152.5 40.4L142.9 37.8L137.7 57.1L147.2 59.7L152.5 40.4 M61.3 157L48.5 150.2L39.1 167.9L51.9 174.7L61.3 157" fill-rule="nonzero"></path></g></g></g><g id="g-root-cp_5_g-5_18gc5a2yhn9q8-fill" data-item-order="-681968" transform="translate(235.46099853515625, 440.85498046875)"><g id="cp_5_g-5_18gc5a2yhn9q8-fill-merged" stroke="none" fill="#ffe4cb" fill-opacity="1"><g><path d="M65.9 50.7L40.2 62.3L44.5 82.3L74.2 68.9L65.9 50.7 M44.5 82.3L118.7 82.2L115.5 62.2L40.2 62.3L44.5 82.3 M115.5 62.2L14.4 95.6L19 115.1L118.7 82.2L115.5 62.2 M19 115.1L132.4 98.4L128.1 78.8L14.4 95.6L19 115.1 M128.1 78.8L7.4 113.5L11.9 133L132.4 98.4L128.1 78.8 M11.9 133L139.1 111.5L134.3 92L7.4 113.5L11.9 133 M134.3 92L12.9 131.6L17.4 151.2L139.1 111.5L134.3 92 M17.4 151.2L139.5 133.6L134.9 114.1L12.9 131.6L17.4 151.2 M134.9 114.1L27.4 149.2L30.9 169.1L139.5 133.6L134.9 114.1 M30.9 169.1L123.5 166.2L119.7 146.3L27.4 149.2L30.9 169.1 M119.7 146.3L56.7 168.7L63.3 187.5L123.5 166.2L119.7 146.3" fill-rule="nonzero"></path></g></g><g id="cp_5_g-5_18gc5a2yhn9q8-fill-merged" stroke="none" fill="#ffe4cb" fill-opacity="1"><g><path d="M66.2 12.1L57.4 14.5L54.9 35.9L71.4 31.4L66.2 12.1 M54.9 35.9L78.8 48.7L80.8 27.1L57.4 14.5L54.9 35.9 M80.8 27.1L43.1 39L49.1 58.1L78.8 48.7L80.8 27.1 M78.7 24.2L70.5 26.9L76.7 45.9L84.9 43.2L78.7 24.2 M125.6 168.4L114.9 173.5L123.4 191.6L134.2 186.5L125.6 168.4" fill-rule="nonzero"></path></g></g></g><g id="g-root-cp_4_g-4_zkp516yhnaix-fill" data-item-order="-681962" transform="translate(354.4219970703125, 566)"><g id="cp_4_g-4_zkp516yhnaix-fill-merged" stroke="none" fill="#fff8b6" fill-opacity="1"><g><path d="M46.9 51.2L48 57L69.3 61.9L66.6 47.6L46.9 51.2 M69.3 61.9L99.9 20.1L82 10.7L48 57L69.3 61.9 M82 10.7L49.9 103.1L68.1 111.6L99.9 20.1L82 10.7 M68.1 111.6L126.8 15.2L108.3 7.2L49.9 103.1L68.1 111.6 M108.3 7.2L73.6 130.4L92.4 137.6L126.8 15.2L108.3 7.2 M92.4 137.6L149.3 24.3L130.9 16.4L73.6 130.4L92.4 137.6 M130.9 16.4L89.2 133.1L107.3 141.7L149.3 24.3L130.9 16.4 M107.3 141.7L168.2 39.3L150 30.7L89.2 133.1L107.3 141.7 M150 30.7L111.9 137.6L130.2 145.6L168.2 39.3L150 30.7 M130.2 145.6L177.9 55L158.9 48.2L111.9 137.6L130.2 145.6 M158.9 48.2L142.1 130.7L161.7 134.7L177.9 55L158.9 48.2" fill-rule="nonzero"></path></g></g><g id="cp_4_g-4_zkp516yhnaix-fill-merged" stroke="none" fill="#fff8b6" fill-opacity="1"><g><path d="M206 75.4L206.6 71.8L189.1 55.8L186.3 71.9L206 75.4 M189.1 55.8L167.7 61.7L183.9 78L206.6 71.8L189.1 55.8 M183.9 78L188.6 60.8L169.4 55.5L167.7 61.7L183.9 78 M194.1 58.8L195.1 44.9L175.1 43.6L174.2 57.4L194.1 58.8 M29.8 69.5L36.8 41L17.4 36.2L10.4 64.7L29.8 69.5" fill-rule="nonzero"></path></g></g></g><g id="g-root-cp_3_g-3_zkp516yhnaiy-fill" data-item-order="-681956" transform="translate(528.85595703125, 457.625)"><g id="cp_3_g-3_zkp516yhnaiy-fill-merged" stroke="none" fill="#e9ffb9" fill-opacity="1"><g><path d="M30.4 73.7L24.6 87.6L42 98L48.9 81.3L30.4 73.7 M42 98L79 52.3L61.1 42.6L24.6 87.6L42 98 M61.1 42.6L33.8 129.7L52.1 138.1L79 52.3L61.1 42.6 M52.1 138.1L112.5 40.5L94.4 31.7L33.8 129.7L52.1 138.1 M94.4 31.7L49.7 153.7L68 161.8L112.5 40.5L94.4 31.7 M68 161.8L128.1 47L109.5 39.5L49.7 153.7L68 161.8 M109.5 39.5L73.4 164.2L92 171.7L128.1 47L109.5 39.5 M92 171.7L151.1 60.3L132.6 52.6L73.4 164.2L92 171.7 M132.6 52.6L98.7 162.1L117.2 169.9L151.1 60.3L132.6 52.6 M117.2 169.9L163.1 86.4L144.7 78.5L98.7 162.1L117.2 169.9 M144.7 78.5L123.2 146.7L142.3 152.7L163.1 86.4L144.7 78.5" fill-rule="nonzero"></path></g></g><g id="cp_3_g-3_zkp516yhnaiy-fill-merged" stroke="none" fill="#e9ffb9" fill-opacity="1"><g><path d="M135 10L136.1 12.4L117.5 20.5L101.3 44.5L125.4 42.7L132.7 30L130.6 29.5L135 10 M125.4 42.7L109.1 22.2L93.5 34.7L101.3 44.5L125.4 42.7 M114.4 23.1L98.3 16.6L90.9 35.2L107 41.6L114.4 23.1 M51.4 143.4L33 134.5L18.4 149.6L42.6 161.4L51.4 143.4 M18.4 149.6L35.1 181.6L50.3 167.5L33 134.5L18.4 149.6 M50.3 167.5L19.2 148.3L8.7 165.3L35.1 181.6L50.3 167.5" fill-rule="nonzero"></path></g></g></g><g id="g-root-cp_2_g-2_v5i3zuyhn85f-fill" data-item-order="-681950" transform="translate(532.9140625, 290.909912109375)"><g id="cp_2_g-2_v5i3zuyhn85f-fill-merged" stroke="none" fill="#c8ffe5" fill-opacity="1"><g><path d="M30.4 56.2L23.3 69.3L40.1 80.2L48 65.8L30.4 56.2 M40.1 80.2L79.8 28.3L61.6 19.1L23.3 69.3L40.1 80.2 M61.6 19.1L32.9 117.6L51.6 125.1L79.8 28.3L61.6 19.1 M51.6 125.1L104.1 24.4L85.6 16.7L32.9 117.6L51.6 125.1 M85.6 16.7L48.5 135.8L67.2 143.1L104.1 24.4L85.6 16.7 M67.2 143.1L123.3 26.3L104.6 18.9L48.5 135.8L67.2 143.1 M104.6 18.9L64.5 145.3L82.9 153.4L123.3 26.3L104.6 18.9 M82.9 153.4L143.3 46.9L125.1 38.5L64.5 145.3L82.9 153.4 M125.1 38.5L86.6 145.4L104.8 154L143.3 46.9L125.1 38.5 M104.8 154L155.7 68.8L137.1 61L86.6 145.4L104.8 154 M137.1 61L117.1 137.8L136.5 142.8L155.7 68.8L137.1 61" fill-rule="nonzero"></path></g></g><g id="cp_2_g-2_v5i3zuyhn85f-fill-merged" stroke="none" fill="#c8ffe5" fill-opacity="1"><g><path d="M41.4 6.4L29.1 14.5L39.9 31.2L52.3 23.2L41.4 6.4 M118.1 139.9L88.7 154.4L91.8 175.2L127 157.8L118.1 139.9 M91.8 175.2L128.7 181.4L126.8 160.8L88.7 154.4L91.8 175.2 M126.8 160.8L92.4 173.5L99.3 192.3L128.7 181.4L126.8 160.8" fill-rule="nonzero"></path></g></g></g><g id="g-root-cp_1_g-1_v5i3zuyhn85g-fill" data-item-order="-681944" transform="translate(359.78497314453125, 218)"><g id="cp_1_g-1_v5i3zuyhn85g-fill-merged" stroke="none" fill="#e8f9ff" fill-opacity="1"><g><path d="M51.7 36.9L38.2 66.2L55.4 76.6L69.9 45.3L51.7 36.9 M55.4 76.6L99.5 19.1L81.6 9.5L38.2 66.2L55.4 76.6 M81.6 9.5L47.7 108L66 116.2L99.5 19.1L81.6 9.5 M66 116.2L120.1 19.9L101.5 12.1L47.7 108L66 116.2 M101.5 12.1L66.7 129.8L85.4 137.2L120.1 19.9L101.5 12.1 M85.4 137.2L143.8 20.9L125.2 13.4L66.7 129.8L85.4 137.2 M125.2 13.4L87.9 133.8L106.6 141.2L143.8 20.9L125.2 13.4 M106.6 141.2L159.2 33L140.6 25.6L87.9 133.8L106.6 141.2 M140.6 25.6L107.1 130L125.5 138.1L159.2 33L140.6 25.6 M125.5 138.1L173.1 55.4L154.8 47.2L107.1 130L125.5 138.1 M154.8 47.2L128.7 127.3L147.7 133.5L173.1 55.4L154.8 47.2" fill-rule="nonzero"></path></g></g><g id="cp_1_g-1_v5i3zuyhn85g-fill-merged" stroke="none" fill="#e8f9ff" fill-opacity="1"><g><path d="M212 110.6L211.5 98.9L191.1 90.4L192 111.5L212 110.6 M191.1 90.4L174.7 105.2L190.7 117.6L211.5 98.9L191.1 90.4 M190.7 117.6L194.9 109.6L177.3 100.3L174.7 105.2L190.7 117.6 M195.2 112.1L195.4 78.9L175.4 78.8L175.2 111.9L195.2 112.1 M39.1 84.4L38.8 73.6L18.8 74.3L19.1 85.1L39.1 84.4" fill-rule="nonzero"></path></g></g></g><g id="g-root-ic_shar_8yeldmyhnaj2-fill" data-item-order="0" transform="translate(428, 254)"></g><g id="g-root-ic_sync_4kgiiiyhonpj-fill" data-item-order="0" transform="translate(271.6990051269531, 335)"></g><g id="g-root-ic_cros_zofzjuyhn8jk-fill" data-item-order="0" transform="translate(584.2360229492188, 335.95703125)"></g><g id="g-root-tx__dj7w6yyhonbe-fill" data-item-order="0" transform="translate(722, 314)"><g id="tx__dj7w6yyhonbe-fill-merged" stroke="none" fill="#484848" fill-opacity="1"><g><text style="font: bold 20px &quot;Shantell Sans&quot;, cursive; white-space: pre;" transform="translate(10, 22)" font-weight="bold" font-size="20px" font-family="'Shantell Sans', cursive"><tspan x="2" y="13" dominant-baseline="ideographic">解析資料</tspan></text></g></g></g><g id="g-root-tx__qvxcqiyhonwq-fill" data-item-order="0" transform="translate(98, 338)"><g id="tx__qvxcqiyhonwq-fill-merged" stroke="none" fill="#484848" fill-opacity="1"><g><text style="font: bold 20px &quot;Shantell Sans&quot;, cursive; white-space: pre;" transform="translate(106, 22)" font-weight="bold" font-size="20px" font-family="'Shantell Sans', cursive"><tspan x="-82" y="13" dominant-baseline="ideographic">調整計畫</tspan></text></g></g></g><g id="g-root-tx__mg3um2yhoooz-fill" data-item-order="0" transform="translate(74, 374)"><g id="tx__mg3um2yhoooz-fill-merged" stroke="none" fill="#484848" fill-opacity="1"><g><text style="font: 15px &quot;Shantell Sans&quot;, cursive; white-space: pre;" transform="translate(130, 22)" font-size="15px" font-family="'Shantell Sans', cursive"><tspan x="-107" y="9.75" dominant-baseline="ideographic">調整訓練計畫。</tspan></text></g></g></g><g id="g-root-tx_ig_93ee2iyhoo3n-fill" data-item-order="0" transform="translate(722, 350)"><g id="tx_ig_93ee2iyhoo3n-fill-merged" stroke="none" fill="#484848" fill-opacity="1"><g><text style="font: 15px &quot;Shantell Sans&quot;, cursive; white-space: pre;" transform="translate(10, 34)" font-size="15px" font-family="'Shantell Sans', cursive"><tspan x="2" y="0.75" dominant-baseline="ideographic">系統依 IG 規範解析資</tspan><tspan x="2" y="18.75" dominant-baseline="ideographic">料。</tspan></text></g></g></g><g id="g-root-tx__qu1xh6yhoow9-fill" data-item-order="0" transform="translate(380, 134)"><g id="tx__qu1xh6yhoow9-fill-merged" stroke="none" fill="#484848" fill-opacity="1"><g><text style="font: 15px &quot;Shantell Sans&quot;, cursive; white-space: pre;" transform="translate(88, 34)" font-size="15px" font-family="'Shantell Sans', cursive"><tspan x="-75" y="0.75" dominant-baseline="ideographic">治療師接收過往量表資</tspan><tspan x="-15.01" y="18.75" dominant-baseline="ideographic">料。</tspan></text></g></g></g><g id="g-root-tx__18mkw56yhoopb-fill" data-item-order="0" transform="translate(379, 770)"><g id="tx__18mkw56yhoopb-fill-merged" stroke="none" fill="#484848" fill-opacity="1"><g><text style="font: 15px &quot;Shantell Sans&quot;, cursive; white-space: pre;" transform="translate(88, 22)" font-size="15px" font-family="'Shantell Sans', cursive"><tspan x="-75" y="9.75" dominant-baseline="ideographic">資料回傳至醫院系統。</tspan></text></g></g></g><g id="g-root-tx__147dv3uyhombs-fill" data-item-order="0" transform="translate(98, 518)"><g id="tx__147dv3uyhombs-fill-merged" stroke="none" fill="#484848" fill-opacity="1"><g><text style="font: bold 20px &quot;Shantell Sans&quot;, cursive; white-space: pre;" transform="translate(106, 22)" font-weight="bold" font-size="20px" font-family="'Shantell Sans', cursive"><tspan x="-82" y="13" dominant-baseline="ideographic">評估進度</tspan></text></g></g></g><g id="g-root-ic_2_mb41x6yhooi5-fill" data-item-order="0" transform="translate(271.46099853515625, 520.281005859375)"></g><g id="g-root-ic_cros_1d2ee9myhnaix-fill" data-item-order="0" transform="translate(584.2360229492188, 520.281005859375)"></g><g id="g-root-tx__7rdtmyhoowc-fill" data-item-order="0" transform="translate(722, 518)"><g id="tx__7rdtmyhoowc-fill-merged" stroke="none" fill="#484848" fill-opacity="1"><g><text style="font: bold 20px &quot;Shantell Sans&quot;, cursive; white-space: pre;" transform="translate(10, 22)" font-weight="bold" font-size="20px" font-family="'Shantell Sans', cursive"><tspan x="2" y="13" dominant-baseline="ideographic">追蹤進度</tspan></text></g></g></g><g id="g-root-tx__zrkczeyhon41-fill" data-item-order="0" transform="translate(14, 554)"><g id="tx__zrkczeyhon41-fill-merged" stroke="none" fill="#484848" fill-opacity="1"><g><text style="font: 15px &quot;Shantell Sans&quot;, cursive; white-space: pre;" transform="translate(190, 22)" font-size="15px" font-family="'Shantell Sans', cursive"><tspan x="-167.01" y="9.75" dominant-baseline="ideographic">復健團隊評估病患進度。</tspan></text></g></g></g><g id="g-root-tx__m9v3qyyhn8y5-fill" data-item-order="0" transform="translate(356, 38)"><g id="tx__m9v3qyyhn8y5-fill-merged" stroke="none" fill="#484848" fill-opacity="1"><g><text style="font: bold 25px &quot;Shantell Sans&quot;, cursive; white-space: pre;" transform="translate(112, 28)" font-weight="bold" font-size="25px" font-family="'Shantell Sans', cursive"><tspan x="-100" y="16.94" dominant-baseline="ideographic">遠距復健追蹤週期</tspan></text></g></g></g><g id="g-root-tx__1ly1eiiyhon4d-fill" data-item-order="0" transform="translate(722, 554)"><g id="tx__1ly1eiiyhon4d-fill-merged" stroke="none" fill="#484848" fill-opacity="1"><g><text style="font: 15px &quot;Shantell Sans&quot;, cursive; white-space: pre;" transform="translate(10, 22)" font-size="15px" font-family="'Shantell Sans', cursive"><tspan x="2" y="9.75" dominant-baseline="ideographic">治療師新增追蹤量表。</tspan></text></g></g></g><g id="g-root-ic_cros_8x5n7eyhomir-fill" data-item-order="0" transform="translate(428, 602)"></g><g id="g-root-tx__1hi7we2yhonwm-fill" data-item-order="0" transform="translate(409, 734)"><g id="tx__1hi7we2yhonwm-fill-merged" stroke="none" fill="#484848" fill-opacity="1"><g><text style="font: bold 20px &quot;Shantell Sans&quot;, cursive; white-space: pre;" transform="translate(58, 22)" font-weight="bold" font-size="20px" font-family="'Shantell Sans', cursive"><tspan x="-40" y="13" dominant-baseline="ideographic">回傳資料</tspan></text></g></g></g><g id="g-root-tx__1d15g3eyhomio-fill" data-item-order="0" transform="translate(392, 98)"><g id="tx__1d15g3eyhomio-fill-merged" stroke="none" fill="#484848" fill-opacity="1"><g><text style="font: bold 20px &quot;Shantell Sans&quot;, cursive; white-space: pre;" transform="translate(76, 22)" font-weight="bold" font-size="20px" font-family="'Shantell Sans', cursive"><tspan x="-60" y="13" dominant-baseline="ideographic">接收病患資料</tspan></text></g></g></g><g id="g-root-cp_6_g-6_1cw5neiyhn8xz-stroke" data-item-order="-681974" transform="translate(235.69699096679688, 287.906005859375)"><g id="cp_6_g-6_1cw5neiyhn8xz-stroke" fill="none" stroke-linecap="round" stroke-linejoin="round" stroke-miterlimit="4" stroke="#484848" stroke-width="4" stroke-opacity="1"><g><path d="M 10 88.046875C 10.000002 124.49767 39.549208 154.046877 76.000002 154.046877C 112.450795 154.046877 142.000002 124.49767 142.000002 88.046877C 142.000002 51.596083 112.450795 22.046877 76.000002 22.046877C 39.549208 22.046877 10.000002 51.596083 10.000002 88.046877M 10 88C 9.4 107 18.5 123.5 30.7 136.1C 42.1 147.7 58.5 153.9 76 154C 88.8 154.2 101.1 150.9 110.8 144.1C 119.1 138.3 125.8 131 131.9 123.1C 139.3 113.6 143.9 100.8 142 88C 139.2 69.3 134 52.1 121.3 40C 109.5 28.8 93.5 22.1 76 22C 58.7 22 42.7 28.6 31.1 39.7C 18.3 51.9 9.1 69 10 88"></path></g></g><g id="cp_6_g-6_1cw5neiyhn8xz-stroke" fill="none" stroke-linecap="round" stroke-linejoin="round" stroke-miterlimit="4" stroke="#484848" stroke-width="4" stroke-opacity="1"><g><path d="M 143.037681 53.3767L 148.031981 61.9122L 159.795181 20.1342L 117.656781 10L 123.791781 20.485C 118.861781 23.8367 114.100581 27.4075 109.520981 31.1834C 120.640481 37.7525 129.665781 47.49 135.354381 59.1536C 137.851481 57.1519 140.413581 55.2251 143.037681 53.3767ZM 79.520381 153.9564C 78.354381 154.0177 77.180381 154.0487 75.999181 154.0487C 63.782881 154.0487 52.341781 150.7297 42.528481 144.9442C 40.120881 157.9428 39.046581 171.2003 39.351381 184.5107L 59.829581 162.9482L 77.302681 180.8695C 77.257381 171.8242 78.004081 162.8197 79.520381 153.9564ZM 143 53.4C 144.6 56.3 146.9 58.8 148 61.9C 151.3 47.8 155.7 34 159.8 20.1C 145.4 18.6 131.4 14.3 117.7 10C 119.6 13.5 121.8 16.9 123.8 20.5C 119.4 24.5 114 27.3 109.5 31.2C 120.3 38.4 131 46.9 135.4 59.2C 138.1 57.6 140.7 55.5 143 53.4M 79.5 154C 78.4 154.1 77.2 154 76 154C 63.8 155 52.9 149.7 42.5 144.9C 40.1 157.9 38 171.3 39.4 184.5C 45.6 176.8 53.3 170.4 59.8 162.9C 66.4 168.1 72.7 173.9 77.3 180.9C 78.8 172 76.7 162.5 79.5 154"></path></g></g></g><g id="g-root-cp_5_g-5_18gc5a2yhn9q8-stroke" data-item-order="-681968" transform="translate(235.46099853515625, 440.85498046875)"><g id="cp_5_g-5_18gc5a2yhn9q8-stroke" fill="none" stroke-linecap="round" stroke-linejoin="round" stroke-miterlimit="4" stroke="#484848" stroke-width="4" stroke-opacity="1"><g><path d="M 10 119.425903C 10.000002 155.876699 39.549208 185.425905 76.000002 185.425905C 112.450795 185.425905 142.000002 155.876699 142.000002 119.425905C 142.000002 82.975112 112.450795 53.425905 76.000002 53.425905C 39.549208 53.425905 10.000002 82.975112 10.000002 119.425905M 10 119.4C 11.8 155.8 39.6 183.9 76 185.4C 112.4 187 140.9 155.9 142 119.4C 142.5 102.8 135.8 87.8 125.8 76.1C 113.8 62.1 95.8 54.9 76 53.4C 63.2 52.5 52 58.5 41.1 63.4C 31.4 67.7 26 77.7 19.2 85.8C 11.8 94.5 11.4 107.2 10 119.4"></path></g></g><g id="cp_5_g-5_18gc5a2yhn9q8-stroke" fill="none" stroke-linecap="round" stroke-linejoin="round" stroke-miterlimit="4" stroke="#484848" stroke-width="4" stroke-opacity="1"><g><path d="M 78.171303 41.1471L 90.365703 41.0763L 60.066403 10L 30.220703 41.4259L 40.062403 41.3687C 40.584603 48.4352 41.494103 55.4499 42.781503 62.3823C 52.538303 56.6883 63.888003 53.4259 75.999603 53.4259C 77.275303 53.4259 78.542503 53.4621 79.800303 53.5335C 79.092303 49.4356 78.548303 45.3036 78.171303 41.1471ZM 135.503503 148.0144C 129.875403 159.7072 120.902403 169.4863 109.825403 176.1106C 118.190003 183.0011 127.144103 189.1946 136.602003 194.6126L 128.960403 167.4731L 154.820903 161.2537C 148.039103 157.3236 141.583403 152.8954 135.503503 148.0144ZM 78.2 41.1C 82.1 40 86.5 39.7 90.4 41.1C 80.4 30.6 69.6 20.9 60.1 10C 49 19.3 41.2 32 30.2 41.4C 33.4 42.1 36.9 40.5 40.1 41.4C 41.2 48.4 41 55.5 42.8 62.4C 51.9 55.7 63.9 54.4 76 53.4C 77.3 53.3 78.6 53.7 79.8 53.5C 78.8 49.5 78.8 45.3 78.2 41.1M 135.5 148C 129.4 159.5 120.8 169.4 109.8 176.1C 117.8 183.4 127.7 188.4 136.6 194.6C 133.8 185.6 129.8 176.8 129 167.5C 137.8 166.3 146.1 163.1 154.8 161.3C 148 157.4 140.9 153.6 135.5 148"></path></g></g></g><g id="g-root-cp_4_g-4_zkp516yhnaix-stroke" data-item-order="-681962" transform="translate(354.4219970703125, 566)"><g id="cp_4_g-4_zkp516yhnaix-stroke" fill="none" stroke-linecap="round" stroke-linejoin="round" stroke-miterlimit="4" stroke="#484848" stroke-width="4" stroke-opacity="1"><g><path d="M 47.578125 76C 47.578127 112.450795 77.127333 142.000002 113.578127 142.000002C 150.02892 142.000002 179.578127 112.450795 179.578127 76.000002C 179.578127 39.549208 150.02892 10.000002 113.578127 10.000002C 77.127333 10.000002 47.578127 39.549208 47.578127 76.000002M 47.6 76C 49.1 93 53.2 109.5 64.7 120.3C 77.8 132.6 94.2 143 113.6 142C 130.4 141.1 146.7 136.6 157.5 125.3C 170 112.1 180.7 95.6 179.6 76C 178.6 58.7 173.5 42.4 162 31.2C 149.3 18.8 132.7 8.9 113.6 10C 96.6 11 80.6 16 69.3 27C 56.5 39.6 49.4 56.7 47.6 76"></path></g></g><g id="cp_4_g-4_zkp516yhnaix-stroke" fill="none" stroke-linecap="round" stroke-linejoin="round" stroke-miterlimit="4" stroke="#484848" stroke-width="4" stroke-opacity="1"><g><path d="M 179.1537 83.519413C 179.4334 81.052113 179.5771 78.543613 179.5771 76.001512C 179.5771 65.004313 176.8875 54.635413 172.1302 45.516513C 178.9098 42.750613 185.503 39.500213 191.8571 35.782213L 184.4333 62.148213L 211.0859 68.558013C 200.8898 74.527312 190.1987 79.529213 179.1537 83.519413ZM 48.0006 83.519413C 40.9532 80.973413 34.0408 78.012213 27.3007 74.643812L 21.7632 84.107513L 10 42.329513L 52.1385 32.195313L 46.5438 41.756813C 49.3367 43.096413 52.1648 44.349913 55.0241 45.516513C 50.2668 54.635313 47.5771 65.004313 47.5771 76.001512C 47.5771 78.543613 47.7209 81.052113 48.0006 83.519413ZM 179.2 83.5C 178.7 81.1 180.1 78.5 179.6 76C 177.4 65.2 177.8 54.1 172.1 45.5C 178.4 41.8 186 40.3 191.9 35.8C 190.4 44.8 186.1 53.2 184.4 62.1C 192.7 66 202.1 67 211.1 68.6C 201 74.7 190.6 81 179.2 83.5M 48 83.5C 41.3 80.3 33.2 79.3 27.3 74.6C 24.4 76.9 23.5 80.9 21.8 84.1C 18.1 70.1 12.1 56.7 10 42.3C 24.3 40.4 38 35.1 52.1 32.2C 50.9 35.7 48 38.4 46.5 41.8C 49.1 43.5 52.2 44.2 55 45.5C 49.3 54.1 47.7 65 47.6 76C 47.6 78.5 47.8 81.1 48 83.5"></path></g></g></g><g id="g-root-cp_3_g-3_zkp516yhnaiy-stroke" data-item-order="-681956" transform="translate(528.85595703125, 457.625)"><g id="cp_3_g-3_zkp516yhnaiy-stroke" fill="none" stroke-linecap="round" stroke-linejoin="round" stroke-miterlimit="4" stroke="#484848" stroke-width="4" stroke-opacity="1"><g><path d="M 29.144531 102.65625C 29.144533 139.107045 58.69374 168.656252 95.144533 168.656252C 131.595327 168.656252 161.144533 139.107045 161.144533 102.656252C 161.144533 66.205458 131.595327 36.656252 95.144533 36.656252C 58.69374 36.656252 29.144533 66.205458 29.144533 102.656252M 29.1 102.7C 29.2 120.5 35.9 137 47.7 148.5C 60 160.6 76.5 168.5 95.1 168.7C 113.3 168.8 129.6 161.1 141.7 149.4C 153.9 137.7 160.2 120.9 161.1 102.7C 163 66.3 131.6 36.7 95.1 36.7C 77.5 36.7 60.3 42.4 49.7 54.8C 38.3 68.1 27.8 83.9 29.1 102.7"></path></g></g><g id="cp_3_g-3_zkp516yhnaiy-stroke" fill="none" stroke-linecap="round" stroke-linejoin="round" stroke-miterlimit="4" stroke="#484848" stroke-width="4" stroke-opacity="1"><g><path d="M 112.7533 29.8875L 94.1438 10.2928C 94.1486 19.1803 93.3889 28.026 91.886 36.7345C 92.9653 36.682 94.0515 36.6555 95.1438 36.6555C 107.4565 36.6555 118.9817 40.0271 128.8466 45.8974C 131.0566 34.0954 132.167 22.0781 132.1435 10L 112.7533 29.8875ZM 61.6304 159.5258C 50.5082 152.9573 41.4805 143.2191 35.7903 131.5542C 32.9923 133.7856 30.1133 135.9232 27.1575 137.9622L 21.7632 128.7432L 10 170.5213L 52.1385 180.6555L 46.3913 170.8333C 51.666 167.3078 56.7508 163.533 61.6304 159.5258ZM 112.8 29.9C 106.5 23.4 100.7 16.5 94.1 10.3C 93.8 19.2 93.5 28 91.9 36.7C 93 36.7 94.1 36.6 95.1 36.7C 107.4 37.4 118.2 41.5 128.8 45.9C 131.6 34.2 133.6 22 132.1 10C 124.7 15.5 118.8 22.9 112.8 29.9M 61.6 159.5C 50.8 152.5 42.5 142.7 35.8 131.6C 33.7 134.4 29.7 135.4 27.2 138C 25.4 134.9 22.4 132.3 21.8 128.7C 17.9 142.7 14.5 156.8 10 170.5C 24.3 172.8 37.9 178.1 52.1 180.7C 50 177.5 47.7 174.4 46.4 170.8C 52.1 168.1 57.3 164.1 61.6 159.5"></path></g></g></g><g id="g-root-cp_2_g-2_v5i3zuyhn85f-stroke" data-item-order="-681950" transform="translate(532.9140625, 290.909912109375)"><g id="cp_2_g-2_v5i3zuyhn85f-stroke" fill="none" stroke-linecap="round" stroke-linejoin="round" stroke-miterlimit="4" stroke="#484848" stroke-width="4" stroke-opacity="1"><g><path d="M 25.320313 85.046875C 25.320314 121.49767 54.869521 151.046877 91.320314 151.046877C 127.771108 151.046877 157.320314 121.49767 157.320314 85.046877C 157.320314 48.596083 127.771108 19.046877 91.320314 19.046877C 54.869521 19.046877 25.320314 48.596083 25.320314 85.046877M 25.3 85C 26.9 98.3 29.8 110.4 36 121.1C 41.7 130.8 50.4 138.8 60.6 143.5C 70 147.8 80.2 151.2 91.3 151C 102.6 150.9 112.6 146.9 122.5 143.2C 132.7 139.5 140.3 130.8 146.2 121.7C 153.1 111.1 158.1 98.6 157.3 85C 155.1 48.7 127.8 18.6 91.3 19C 73.6 19.3 57.7 26.1 45.7 37.3C 33 49.2 23.8 66.3 25.3 85"></path></g></g><g id="cp_2_g-2_v5i3zuyhn85f-stroke" fill="none" stroke-linecap="round" stroke-linejoin="round" stroke-miterlimit="4" stroke="#484848" stroke-width="4" stroke-opacity="1"><g><path d="M 31.9836 56.1142C 25.1107 50.6091 17.7591 45.6821 10 41.3983L 38.5787 34.5252L 31.6733 10C 40.9055 15.3367 49.6534 21.4143 57.8367 28.1592C 46.7117 34.7214 37.6798 44.454 31.9836 56.1142ZM 87.8653 150.958C 88.6729 155.679 89.2629 160.445 89.6306 165.2412L 78.848 165.1785L 108.6937 196.6044L 138.993 165.5282L 127.7336 165.4627C 127.2552 157.5364 126.2895 149.6705 124.8502 141.9076C 115.0238 147.7145 103.5613 151.0469 91.3206 151.0469C 90.1616 151.0469 89.0096 151.017 87.8653 150.958ZM 32 56.1C 24.2 52 17.5 46.1 10 41.4C 19.5 38.9 29.2 37.3 38.6 34.5C 36.1 26.4 32.8 18.4 31.7 10C 41.1 14.9 49.2 22.1 57.8 28.2C 47.6 36 37.8 44.5 32 56.1M 87.9 151C 87.8 155.8 89.9 160.4 89.6 165.2C 86 165 82.4 165.5 78.8 165.2C 87.9 176.4 99.6 185.4 108.7 196.6C 119.8 187.4 128.4 175.4 139 165.5C 135.4 164.6 131.5 165.4 127.7 165.5C 127 157.6 126.4 149.6 124.9 141.9C 114.5 146.6 103.5 151.7 91.3 151C 90.2 151 89 151 87.9 151"></path></g></g></g><g id="g-root-cp_1_g-1_v5i3zuyhn85g-stroke" data-item-order="-681944" transform="translate(359.78497314453125, 218)"><g id="cp_1_g-1_v5i3zuyhn85g-stroke" fill="none" stroke-linecap="round" stroke-linejoin="round" stroke-miterlimit="4" stroke="#484848" stroke-width="4" stroke-opacity="1"><g><path d="M 42.212922 76C 42.212924 112.450795 71.76213 142.000002 108.212924 142.000002C 144.663717 142.000002 174.212924 112.450795 174.212924 76.000002C 174.212924 39.549208 144.663717 10.000002 108.212924 10.000002C 71.76213 10.000002 42.212924 39.549208 42.212924 76.000002M 42.200031 76C 42.600031 112.4 71.800031 142.5 108.200031 142C 127.100031 141.7 145.400031 135.2 156.100031 121.4C 166.100031 108.5 175.200031 93.6 174.200031 76C 173.200031 57.4 166.500031 40.5 154.100031 28.5C 142.200031 17.1 126.000031 8.9 108.200031 10C 95.200031 10.8 83.400031 14.3 72.900031 20.3C 63.900031 25.4 57.500031 33.9 51.400031 42.3C 44.800031 51.7 43.800031 63.8 42.200031 76"></path></g></g><g id="cp_1_g-1_v5i3zuyhn85g-stroke" fill="none" stroke-linecap="round" stroke-linejoin="round" stroke-miterlimit="4" stroke="#484848" stroke-width="4" stroke-opacity="1"><g><path d="M 166.766631 106.48555C 171.524031 97.36675 174.213631 86.99775 174.213631 76.00055C 174.213631 73.45845 174.069931 70.94995 173.790131 68.48265C 180.461931 70.89295 187.012631 73.67535 193.410831 76.82305L 199.944831 65.65625L 211.708031 107.43425L 169.569531 117.56845L 174.157331 109.72785C 171.719131 108.58165 169.254731 107.50065 166.766631 106.48555ZM 49.660631 106.48555C 42.196331 109.53095 34.957931 113.16335 28.015931 117.36075L 35.708031 90.04145L 10.000031 83.85875C 20.407931 77.70615 31.337231 72.56495 42.637131 68.48275C 42.357331 70.94995 42.213631 73.45845 42.213631 76.00055C 42.213631 86.99775 44.903331 97.36675 49.660631 106.48555ZM 166.800031 106.5C 171.200031 97.2 174.700031 87 174.200031 76C 174.100031 73.5 174.600031 70.8 173.800031 68.5C 180.500031 70.9 186.600031 74.6 193.400031 76.8C 196.100031 73.4 198.800031 69.8 199.900031 65.7C 202.300031 79.9 208.900031 93.2 211.700031 107.4C 197.700031 111 183.600031 114 169.600031 117.6C 170.700031 114.8 172.800031 112.4 174.200031 109.7C 171.800031 108.4 169.300031 107.3 166.800031 106.5M 49.700031 106.5C 43.000031 111 35.700031 114.7 28.000031 117.4C 31.900031 108.7 33.500031 99.3 35.700031 90C 27.000031 88.8 18.700031 85.5 10.000031 83.9C 20.100031 77.1 31.900031 73.9 42.600031 68.5C 43.300031 70.9 41.300031 73.6 42.200031 76C 46.200031 86.3 45.500031 97.1 49.700031 106.5"></path></g></g></g><g id="g-root-ic_shar_8yeldmyhnaj2-stroke" data-item-order="0" transform="translate(428, 254)"><g id="ic_shar_8yeldmyhnaj2-stroke" fill="none" stroke-linecap="round" stroke-linejoin="round" stroke-miterlimit="4" stroke="#1ac6ff" stroke-width="2" stroke-opacity="1"><g><path d="M 68.552498 14.0125L 68.552498 30.865M 44.4725 11.25L 66.195 11.25C 66.195 11.25 68.75 11.25 68.75 13.805L 68.75 34.25C 68.75 34.25 68.75 36.805 66.195 36.805L 44.4725 36.805C 44.4725 36.805 41.9175 36.805 41.9175 34.25L 41.9175 13.805C 41.9175 13.805 41.9175 11.25 44.4725 11.25M 41.9175 19.952499L 68.75 19.952499M 41.9175 28.380001L 68.75 28.380001M 54.052502 19.952499L 54.052502 36.805M 11.25 45.545002C 11.256874 44.13839 12.398375 43.001358 13.805 43L 39.360001 43C 40.771492 43 41.916119 44.143509 41.9175 45.555L 41.9175 58.845001C 41.916119 60.256493 40.771492 61.400002 39.360001 61.400002L 13.805 61.399998C 13.125841 61.399342 12.474834 61.128571 11.995535 60.647392C 11.516235 60.166214 11.248008 59.51416 11.25 58.834999ZM 23.75 61.389999L 21.75 68.75M 29.4275 61.389999L 31.407499 68.75M 18.9175 68.75L 34.25 68.75M 22.75 28.27L 17 33.787502L 17 28.27C 17.086105 24.120792 20.518244 20.826298 24.6675 20.91L 34.25 20.91M 11.25 28.27L 17 33.790001M 28.5 15.389999L 34.25 20.91L 28.5 26.43M 68.5 14C 68.25 19.5 67.75 25.25 68.5 30.75M 44.5 11.25C 51.75 11.25 59.5 8.75 66.25 11.25C 66.25 11.25 68 11.25 68.75 13.75C 70.5 20.25 69.25 27.5 68.75 34.25C 68.75 34.25 68.75 36 66.25 36.75C 59.25 39 51.75 37.75 44.5 36.75C 44.5 36.75 42.25 36.75 42 34.25C 40.75 27.5 43.75 20.5 42 13.75C 42 13.75 42 12 44.5 11.25M 42 20C 50.5 22.75 59.75 19.75 68.75 20M 42 28.5C 50.75 28 59.75 28.25 68.75 28.5M 54 20C 52 25.25 55.75 31.5 54 36.75M 11.25 45.5C 11 44.25 12.5 43.25 13.75 43C 22 41 31.25 40 39.25 43C 40.75 43.5 42.25 44.25 42 45.5C 41 50 43.25 54.75 42 58.75C 41.5 60.25 40.75 61 39.25 61.5C 31 63.25 22.25 61.75 13.75 61.5C 13.25 61.25 12.5 61 12 60.75C 11.5 60.25 11.25 59.5 11.25 58.75C 11.5 54.5 12.25 49.75 11.25 45.5M 23.75 61.5C 22.25 63.5 22.25 66.25 21.75 68.75M 29.5 61.5C 30.75 63.75 31.5 66.25 31.5 68.75M 19 68.75C 23.75 67.25 29.25 69.5 34.25 68.75M 22.75 28.25C 20.5 29.75 19.5 32.5 17 33.75C 17 32 17.5 30 17 28.25C 16 24.25 20.5 21.25 24.75 21C 27.75 20.75 31 20.25 34.25 21M 11.25 28.25C 13 30.25 15 32 17 33.75M 28.5 15.5C 30.5 17 32 19.5 34.25 21C 32.75 23.25 30.5 24.75 28.5 26.5"></path></g></g></g><g id="g-root-ic_sync_4kgiiiyhonpj-stroke" data-item-order="0" transform="translate(271.6990051269531, 335)"><g id="ic_sync_4kgiiiyhonpj-stroke" fill="none" stroke-linecap="round" stroke-linejoin="round" stroke-miterlimit="4" stroke="#484848" stroke-width="2" stroke-opacity="1"><g><path d="M 46.25 33.75L 46.25 23.75L 18.75 23.75L 18.75 56.25L 31.25 56.25M 53.75 32.5L 53.75 18.75C 53.75 17.369287 52.630711 16.25 51.25 16.25L 40.125 16.25C 38.766056 13.297303 35.812904 11.405549 32.5625 11.405549C 29.312094 11.405549 26.358942 13.297303 25 16.25L 13.75 16.25C 12.369288 16.25 11.25 17.369287 11.25 18.75L 11.25 61.25C 11.25 62.630711 12.369288 63.75 13.75 63.75L 28.75 63.75M 26.25 31.25L 38.75 31.25M 26.25 38.75L 38.75 38.75M 26.25 46.25L 33.75 46.25M 57.724998 47.850002L 65.324997 51.25L 68.75 43.575001M 38.299999 48.175003C 40.417667 41.989952 46.552864 38.110832 53.048481 38.849926C 59.544106 39.58902 64.650986 44.747307 65.325005 51.25M 45.950001 59.650002L 38.349998 56.25L 34.924999 63.924999M 65.375 59.324997C 63.257332 65.510048 57.122139 69.389175 50.626522 68.650078C 44.130901 67.91098 39.024014 62.752693 38.349998 56.25M 46.25 33.75C 45.5 30.5 46.5 27 46.25 23.75C 37.5 26.75 27.25 20.25 18.75 23.75C 18.5 34.5 16.25 45.75 18.75 56.25C 22.75 57.25 27 56.25 31.25 56.25M 53.75 32.5C 54.25 28 53.75 23.25 53.75 18.75C 53.75 17.25 52.5 16.75 51.25 16.25C 47.75 15.25 43.75 17 40.25 16.25C 39.5 13 35.75 10.5 32.5 11.5C 29.5 12.25 25.25 13 25 16.25C 21.25 17 17.5 16.75 13.75 16.25C 12.5 16 10.75 17.5 11.25 18.75C 15.25 32.25 11.75 47 11.25 61.25C 11.25 62.75 12.25 64 13.75 63.75C 18.75 63 24 62.25 28.75 63.75M 26.25 31.25C 30.25 30.25 34.75 29.75 38.75 31.25M 26.25 38.75C 30.5 38.75 34.5 38.75 38.75 38.75M 26.25 46.25C 28.75 45.5 31.25 45.75 33.75 46.25M 57.75 47.75C 60 49.5 63.25 49.5 65.25 51.25C 66 48.5 67.75 46.25 68.75 43.5M 38.25 48.25C 38.25 41.75 46.75 37 53 38.75C 59.25 40.5 64.5 44.75 65.25 51.25M 46 59.75C 43.25 59.25 41 57.25 38.25 56.25C 37.5 59 35.5 61.25 35 64M 65.5 59.25C 64.75 65.75 57.25 68 50.75 68.75C 44 69.25 40.5 62.5 38.25 56.25"></path></g></g></g><g id="g-root-ic_cros_zofzjuyhn8jk-stroke" data-item-order="0" transform="translate(584.2360229492188, 335.95703125)"><g id="ic_cros_zofzjuyhn8jk-stroke" fill="none" stroke-linecap="round" stroke-linejoin="round" stroke-miterlimit="4" stroke="#484848" stroke-width="2" stroke-opacity="1"><g><path d="M 60.745502 12.859275L 53.083 12.859275L 53.083 19.367149L 46.575249 19.367149L 46.575249 27.02965L 53.083 27.02965L 53.083 33.537251L 60.745502 33.537251L 60.745502 27.02965L 67.25325 27.02965L 67.25325 19.367149L 60.745502 19.367149L 60.745502 12.859275ZM 12.7472 13.756474L 12.7472 67.140747L 66.1315 67.140747M 10 10M 20.600574 51.528248L 30.478699 59.442249L 46.283752 40.44875L 59.042 51.528248M 30.422976 18.0175L 22.215925 18.0175M 34.733273 26.2243L 22.2164 26.2243M 60.75 12.75C 58.5 12 55.75 12.75 53 12.75C 53.5 15 53.75 17.25 53 19.25C 51 19.5 48.75 19.5 46.5 19.25C 46.75 22 47.5 24.75 46.5 27C 48.75 26.5 51 27.75 53 27C 52.75 29.25 52.75 31.5 53 33.5C 55.5 34 58.25 34 60.75 33.5C 60 31.5 61.25 29.25 60.75 27C 62.75 27.5 65 27 67.25 27C 67.5 24.5 66.75 22 67.25 19.25C 65 19.75 62.75 20 60.75 19.25C 60 17.25 60.75 15 60.75 12.75M 12.75 13.75C 13.25 31.5 16.5 49.75 12.75 67.25C 30.5 67.75 48.25 67.75 66.25 67.25M 10 10M 20.5 51.5C 22.75 55.25 28 56 30.5 59.5C 36.5 53.75 39.5 45.25 46.25 40.5C 50 44.75 54.25 48.5 59 51.5M 30.5 18C 27.75 18.25 25 18.5 22.25 18M 34.75 26.25C 30.5 26 26.5 26.5 22.25 26.25"></path></g></g></g><g id="g-root-tx__dj7w6yyhonbe-stroke" data-item-order="0" transform="translate(722, 314)"></g><g id="g-root-tx__qvxcqiyhonwq-stroke" data-item-order="0" transform="translate(98, 338)"></g><g id="g-root-tx__mg3um2yhoooz-stroke" data-item-order="0" transform="translate(74, 374)"></g><g id="g-root-tx_ig_93ee2iyhoo3n-stroke" data-item-order="0" transform="translate(722, 350)"></g><g id="g-root-tx__qu1xh6yhoow9-stroke" data-item-order="0" transform="translate(380, 134)"></g><g id="g-root-tx__18mkw56yhoopb-stroke" data-item-order="0" transform="translate(379, 770)"></g><g id="g-root-tx__147dv3uyhombs-stroke" data-item-order="0" transform="translate(98, 518)"></g><g id="g-root-ic_2_mb41x6yhooi5-stroke" data-item-order="0" transform="translate(271.46099853515625, 520.281005859375)"><g id="ic_2_mb41x6yhooi5-stroke" fill="none" stroke-linecap="round" stroke-linejoin="round" stroke-miterlimit="4" stroke="#484848" stroke-width="2" stroke-opacity="1"><g><path d="M 68.75 56.25C 68.75 63.153557 63.153557 68.75 56.25 68.75C 49.346443 68.75 43.75 63.153557 43.75 56.25C 43.75 49.346443 49.346443 43.75 56.25 43.75M 10 10M 51.25 55L 55.300003 58.037498C 55.83239 58.43655 56.584068 58.348637 57.010002 57.837502L 68.75 43.75M 11.25 48.75C 11.25 40.465729 17.965729 33.75 26.25 33.75C 34.534271 33.75 41.25 40.465729 41.25 48.75ZM 16.875 20.625C 16.875 25.80267 21.072332 30 26.250002 30C 31.42767 30 35.625 25.80267 35.625 20.625C 35.625 15.447331 31.42767 11.250001 26.250002 11.250001C 21.072332 11.250001 16.875 15.447331 16.875 20.625ZM 40.625 20.625C 40.625004 25.80267 44.822334 30 50 30C 55.17767 30 59.375 25.80267 59.375 20.625C 59.375 15.447331 55.17767 11.250001 50 11.250001C 44.822334 11.250001 40.625004 15.447331 40.625004 20.625ZM 58.674999 36.512497C 53.916039 33.13797 47.632195 32.82885 42.564999 35.720001M 68.75 56.25C 70.5 63 63.25 69.25 56.25 68.75C 49.25 68.25 42.25 63 43.75 56.25C 45.25 49.5 49.25 44 56.25 43.75M 10 10M 51.25 55C 52.5 56 54 56.75 55.25 58C 55.75 58.5 56.5 58.25 57 57.75C 62.25 54.75 65.25 48.75 68.75 43.75M 11.25 48.75C 11.75 40.5 18 33.5 26.25 33.75C 34.5 34 40.5 40.5 41.25 48.75C 31.25 50 21.25 47.5 11.25 48.75M 17 20.75C 17.25 25.75 21.25 31.75 26.25 30C 31.25 28.25 36.75 25.75 35.75 20.75C 34.5 15.5 31.25 9.75 26.25 11.25C 21.25 12.75 17.75 15.5 17 20.75M 40.75 20.75C 41.5 25.75 44.75 30.5 50 30C 55.25 29.5 59 25.75 59.5 20.75C 59.75 15.5 55 12.75 50 11.25C 45 9.75 41.5 15.5 40.75 20.75M 58.75 36.5C 55 32 48 33.5 42.5 35.75"></path></g></g></g><g id="g-root-ic_cros_1d2ee9myhnaix-stroke" data-item-order="0" transform="translate(584.2360229492188, 520.281005859375)"><g id="ic_cros_1d2ee9myhnaix-stroke" fill="none" stroke-linecap="round" stroke-linejoin="round" stroke-miterlimit="4" stroke="#484848" stroke-width="2" stroke-opacity="1"><g><path d="M 40.937248 18.816675L 14.791725 18.816675C 13.63155 18.816675 12.69105 19.757175 12.69105 20.917351L 12.69105 54.528252C 12.69105 55.688248 13.63155 56.628754 14.791725 56.628754L 65.208 56.628754C 66.368248 56.628754 67.308746 55.688248 67.308746 54.528252L 67.308746 32.750801M 10 10M 35.798248 56.628754L 31.596975 67.132248M 10 10M 44.201 56.628754L 48.4025 67.132248M 27.395626 67.132248L 52.603752 67.132248M 10 10M 60.888 12.867775L 53.327999 12.867775L 53.327999 19.288525L 46.907249 19.288525L 46.907249 26.84845L 53.327999 26.84845L 53.327999 33.268925L 60.888 33.268925L 60.888 26.84845L 67.308502 26.84845L 67.308502 19.288525L 60.888 19.288525L 60.888 12.867775ZM 10 10M 23.181774 49.741501L 31.679298 40.285751L 37.54425 45.432503L 46.162251 36.335999M 29.4806 26.770901L 21.3834 26.770901M 24.978649 34.1553L 21.382076 34.1553M 41 18.75C 32.25 20 23.5 19.5 14.75 18.75C 13.75 18.75 12.5 19.75 12.75 21C 13.5 32 11 43.5 12.75 54.5C 12.75 55.75 13.75 56.75 14.75 56.75C 31.25 53.75 48.5 56.75 65.25 56.75C 66.25 56.5 67.5 55.75 67.25 54.5C 66.25 47.25 66.75 40 67.25 32.75M 10 10M 35.75 56.75C 33.25 59.5 33.25 63.75 31.5 67.25M 10 10M 44.25 56.75C 44.75 60.25 48 63.5 48.5 67.25M 27.5 67.25C 35.75 65.5 44.25 67.5 52.5 67.25M 10 10M 61 12.75C 58.5 13.25 55.75 13.5 53.25 12.75C 53.75 15 54 17.25 53.25 19.25C 51.25 18.75 49 19 47 19.25C 47.5 21.75 47.75 24.5 47 26.75C 49 26.5 51.25 26.25 53.25 26.75C 53.75 29 53 31.25 53.25 33.25C 55.75 33.75 58.5 34 61 33.25C 61 31.25 60.75 29 61 26.75C 63 27.5 65.25 27 67.25 26.75C 67.5 24.25 66.5 21.75 67.25 19.25C 65.25 19 63 19.5 61 19.25C 61.25 17.25 60.75 15 61 12.75M 10 10M 23.25 49.75C 24.5 45.75 28 42.25 31.75 40.25C 34 41.5 35.5 43.75 37.5 45.5C 41 43 44.5 40 46.25 36.25M 29.5 26.75C 27 27.5 24 26.25 21.5 26.75M 25 34.25C 23.75 34.5 22.5 34.25 21.5 34.25"></path></g></g></g><g id="g-root-tx__7rdtmyhoowc-stroke" data-item-order="0" transform="translate(722, 518)"></g><g id="g-root-tx__zrkczeyhon41-stroke" data-item-order="0" transform="translate(14, 554)"></g><g id="g-root-tx__m9v3qyyhn8y5-stroke" data-item-order="0" transform="translate(356, 38)"></g><g id="g-root-tx__1ly1eiiyhon4d-stroke" data-item-order="0" transform="translate(722, 554)"></g><g id="g-root-ic_cros_8x5n7eyhomir-stroke" data-item-order="0" transform="translate(428, 602)"><g id="ic_cros_8x5n7eyhomir-stroke" fill="none" stroke-linecap="round" stroke-linejoin="round" stroke-miterlimit="4" stroke="#484848" stroke-width="2" stroke-opacity="1"><g><path d="M 10 10M 60.074249 42.562252L 50.59425 42.562252L 50.59425 50.61375L 42.542999 50.61375L 42.542999 60.09375L 50.59425 60.09375L 50.59425 68.144753L 60.074249 68.144753L 60.074249 60.09375L 68.125504 60.09375L 68.125504 50.61375L 60.074249 50.61375L 60.074249 42.562252ZM 19.9002 27.353525L 46.150249 27.353525M 19.9002 38.6035L 38.650249 38.6035M 19.9002 49.8535L 29.2752 49.8535M 36.043747 61.1035L 16.1502 61.1035C 15.15565 61.1035 14.201825 60.7085 13.49855 60.005249C 12.7953 59.302002 12.400208 58.348 12.400208 57.3535L 12.400208 16.103525C 12.400208 15.10895 12.7953 14.155125 13.49855 13.451875C 14.201825 12.7486 15.15565 12.353515 16.1502 12.353515L 42.722748 12.353515C 43.716499 12.353727 44.66975 12.748475 45.372749 13.451025L 52.55275 20.631025C 53.255249 21.334 53.649998 22.287149 53.650249 23.281025L 53.650249 36.137749M 10 10M 60 42.5C 57 43.5 53.75 42.25 50.5 42.5C 49.75 45.25 49.75 48 50.5 50.5C 48 51.5 45.25 50 42.5 50.5C 42.25 53.75 42 57 42.5 60C 45.25 60 48 61 50.5 60C 49.75 62.5 50 65.5 50.5 68.25C 53.75 68 57 68.5 60 68.25C 61 65.5 59.5 62.75 60 60C 62.75 59.5 65.5 59.75 68.25 60C 67.25 57 67.75 53.75 68.25 50.5C 65.5 51.25 62.5 51.5 60 50.5C 59.25 48 60.75 45.25 60 42.5M 20 27.25C 28.5 28.75 38 30.5 46.25 27.25M 20 38.5C 26 37.75 32.5 38.25 38.75 38.5M 20 49.75C 22.75 51 26.25 51 29.25 49.75M 36 61C 29.75 63.5 22.5 59.5 16.25 61C 15.25 61.25 14.5 60.5 13.5 60C 12.5 59.5 12.5 58.25 12.5 57.25C 11.75 43.5 11 29.75 12.5 16C 12.5 15 13 14.25 13.5 13.5C 14 12.5 15.25 12 16.25 12.25C 24.5 15 34 12.5 42.75 12.25C 43.75 12.25 44.5 13 45.25 13.5C 48.25 15.25 50.75 17.75 52.5 20.75C 53 21.5 54 22.25 53.75 23.25C 52.25 27.25 53.25 32 53.75 36.25"></path></g></g></g><g id="g-root-tx__1hi7we2yhonwm-stroke" data-item-order="0" transform="translate(409, 734)"></g><g id="g-root-tx__1d15g3eyhomio-stroke" data-item-order="0" transform="translate(392, 98)"></g></g></g><path id="wm7d7fuv5b8jv" d="M65.283 12.757a.35.35 0 0 0 .584.157l5.203-5.141-6.183 3.523.396 1.461zm-2.216-11.7a.35.35 0 0 0-.522.305v3.111l3.276-1.868-2.754-1.548zm3.728 2.105l-4.25 2.421v2.445l6.391-3.644-2.141-1.222zm4.708 3.303a.35.35 0 0 0 0-.609l-1.592-.9-7.365 4.199v1.782a.35.35 0 0 0 .523.305l8.435-4.777z M44.542 2.513c0-.433.355-.783.792-.783s.792.35.792.783-.355.783-.792.783-.792-.35-.792-.783zm59.171 0c0-.433.355-.783.792-.783s.792.35.792.783-.355.783-.792.783-.792-.35-.792-.783zm-85.951 7.636h-1.27v-.487c-.276.201-.864.609-1.881.609-1.202 0-2.274-.794-2.137-2.078.118-1.106 1.153-1.584 1.848-1.727l2.17-.345c0-.539-.29-.956-1.064-1.006s-1.21.305-1.571 1.017l-1.124-.605c1.218-2.631 5.029-1.764 5.029.414v4.207zm-1.27-2.86c.006.396-.062 1.112-.819 1.59-.587.37-1.841.299-1.903-.395-.049-.555.461-.791.906-.898l1.816-.297zm72.662 2.86h-1.27v-.487c-.276.201-.864.609-1.881.609-1.202 0-2.274-.794-2.137-2.078.118-1.106 1.153-1.584 1.848-1.727l2.17-.345c0-.539-.29-.956-1.064-1.006s-1.21.305-1.571 1.017l-1.124-.605c1.218-2.631 5.029-1.764 5.029.414v4.207zm-1.27-2.86c.006.396-.062 1.112-.82 1.59-.587.37-1.841.299-1.903-.395-.049-.555.461-.791.906-.898l1.816-.297zM99.096 10.149H97.85v-8.45h1.246v4.895l2.68-2.559h1.738l-2.633 2.535 2.715 3.578h-1.556l-2.077-2.707-.867.844v1.863zm6.053-6.114h-1.255v6.113h1.255V4.035zm-59.2 0h-1.255v6.113h1.255V4.035zm5.584 6.113V1.697h1.255v2.695c.361-.346 1-.485 1.47-.485 1.452 0 2.477 1.082 2.457 2.448v3.792h-1.27v-3.68c0-.408-.214-1.339-1.315-1.339-.968 0-1.342.756-1.342 1.339v3.681h-1.255zm-4.76-4.894V4.039h.621a.45.45 0 0 0 .45-.45v-.855h1.251v1.305h1.309v1.215h-1.309v3.109c0 .293.105.664.648.664.365 0 .531-.035.736-.07v1.137s-.361.113-.857.113c-1.398 0-1.777-1.051-1.777-1.788V5.254h-1.071zM36.528 4.039h-1.394l2.191 6.106h1.125l1.234-3.918 1.238 3.918h1.129l2.188-6.106h-1.383l-1.359 3.93-1.256-3.93h-1.124l-1.242 3.957-1.348-3.957zM26.212 7.141c-.02 1.566 1.187 3.129 3.223 3.129 1.566 0 2.383-.918 2.734-1.719L31.172 8c-.315.399-.801 1.094-1.738 1.094-1.145 0-1.825-.781-1.891-1.52h4.625c.074-.284.148-.995-.03-1.559-.336-1.064-1.221-2.102-2.839-2.102s-3.088 1.152-3.088 3.227zm1.363-.75h3.348c-.055-.43-.566-1.301-1.623-1.301a1.79 1.79 0 0 0-1.725 1.301zm-8.758.75c.038 1.758 1.277 3.133 3.145 3.133 1.074 0 1.723-.477 1.961-.672v.547h1.242V1.703h-1.258v2.888c-.414-.36-1.062-.68-1.93-.68-1.91 0-3.198 1.473-3.16 3.23zm1.309-.08c0 1.119.723 1.978 1.836 1.978a1.88 1.88 0 0 0 1.94-1.904c0-1.371-1.011-1.99-1.972-1.99s-1.805.798-1.805 1.916zm76.683-.028C96.771 5.275 95.532 3.9 93.664 3.9c-1.074 0-1.723.477-1.961.672v-.547h-1.242v8.22h1.258V9.583c.414.36 1.063.68 1.93.68 1.91 0 3.198-1.473 3.16-3.23zm-1.309.08c0-1.119-.723-1.978-1.836-1.978a1.88 1.88 0 0 0-1.94 1.904c0 1.371 1.011 1.99 1.972 1.99S95.5 8.231 95.5 7.113zM106.441 10.173V4.036h1.254v.382c.361-.346 1-.485 1.47-.485 1.452 0 2.477 1.082 2.457 2.448v3.792h-1.27V6.492c0-.408-.214-1.339-1.315-1.339-.969 0-1.342.756-1.342 1.339v3.681h-1.254zm-30.383-.021V1.824h1.084l4.215 5.777V1.824h1.32v8.328h-1.094l-4.207-5.796v5.796h-1.319zM5.24 10.149H4V2.377h1.014l2.664 3.597 2.654-3.592h1.03v7.766h-1.256V4.762L7.678 8.068 5.24 4.742v5.407z" transform="translate(800, 830)" fill="#80808088" stroke="none"></path></svg>