<?xml version="1.0" encoding="utf-8" standalone="yes"?>
<!DOCTYPE svg PUBLIC "-//W3C//DTD SVG 1.1//EN" "http://www.w3.org/Graphics/SVG/1.1/DTD/svg11.dtd">
<svg style="fill:none;stroke:none;fill-rule:evenodd;clip-rule:evenodd;stroke-linecap:round;stroke-linejoin:round;stroke-miterlimit:1.5;" version="1.1" xmlns="http://www.w3.org/2000/svg" xmlns:xlink="http://www.w3.org/1999/xlink" width="1020" height="588" viewBox="0 0 1020 588"><style class="text-font-style fontImports" data-font-family="Roboto">@import url(https://fonts.googleapis.com/css2?family=Roboto:wght@400;700&amp;amp;display=block);</style><g id="items" style="isolation: isolate"><g id="blend" style="mix-blend-mode: normal"><g id="g-root-cp_0_g-0_18gbct6zbm2h4-fill" data-item-order="-478213" transform="translate(14, 241.5130615234375)"></g><g id="g-root-cp_1_g-1_v5hbiyzbm0w9-fill" data-item-order="-478209" transform="translate(37.99999237060547, 230)"></g><g id="g-root-cp_2_g-2_v5hbiyzbm0wa-fill" data-item-order="-478201" transform="translate(193.53500366210938, 230)"></g><g id="g-root-cp_3_g-3_qpnteizbm1oj-fill" data-item-order="-478193" transform="translate(349.50396728515625, 230)"></g><g id="g-root-cp_4_g-4_hu0t5mzbm2h8-fill" data-item-order="-478185" transform="translate(505.5159912109375, 230)"></g><g id="g-root-cp_5_g-5_dets4azbm03p-fill" data-item-order="-478177" transform="translate(662, 230)"></g><g id="g-root-cp_1_g-1_1_dets4azbm03q-fill" data-item-order="-478153" transform="translate(146, 134)"></g><g id="g-root-cp_3_g-3_1_4j6rvezbm0wf-fill" data-item-order="-478143" transform="translate(458, 98.00006103515625)"></g><g id="g-root-cp_5_g-5_1_8z09zuzbm0w0-fill" data-item-order="-478133" transform="translate(770, 134)"></g><g id="g-root-cp_2_g-2_1_3d9qyzbm1op-fill" data-item-order="-478123" transform="translate(278, 410)"></g><g id="g-root-cp_4_g-4_1_3d9qyzbm1oq-fill" data-item-order="-478113" transform="translate(590, 410)"></g><g id="g-root-tx__18eg0pmzb6l8q-fill" data-item-order="0" transform="translate(158, 170.00006103515625)"><g id="tx__18eg0pmzb6l8q-fill-merged" stroke="none" fill="#484848" fill-opacity="1"><g><text style="font: 15px Roboto, sans-serif; white-space: pre;" transform="translate(10, 22)" font-size="15px" font-family="Roboto, sans-serif"><tspan x="2" y="8.36" dominant-baseline="ideographic">病患同意使用其資料</tspan></text></g></g></g><g id="g-root-tx_4j7auywtr47j-fill" data-item-order="0" transform="translate(470, 170.00006103515625)"><g id="tx_4j7auywtr47j-fill-merged" stroke="none" fill="#484848" fill-opacity="1"><g><text style="font: 15px Roboto, sans-serif; white-space: pre;" transform="translate(10, 22)" font-size="15px" font-family="Roboto, sans-serif"><tspan x="2" y="5.36" dominant-baseline="ideographic">將符合FHIR 格式之資料上傳至FHIR Server</tspan></text></g></g></g><g id="g-root-tx__hs5h22zb6l8u-fill" data-item-order="0" transform="translate(782, 170.00006103515625)"><g id="tx__hs5h22zb6l8u-fill-merged" stroke="none" fill="#484848" fill-opacity="1"><g><text style="font: 15px Roboto, sans-serif; white-space: pre;" transform="translate(10, 22)" font-size="15px" font-family="Roboto, sans-serif"><tspan x="2" y="8.36" dominant-baseline="ideographic">治療師檢閱資料以進行治療</tspan></text></g></g></g><g id="g-root-tx__qnshayzb6kg5-fill" data-item-order="0" transform="translate(782, 134.00006103515625)"><g id="tx__qnshayzb6kg5-fill-merged" stroke="none" fill="#7f64ea" fill-opacity="1"><g><text style="font: 20px Roboto, sans-serif; white-space: pre;" transform="translate(10, 22)" font-size="20px" font-family="Roboto, sans-serif"><tspan x="2" y="11.61" dominant-baseline="ideographic">治療師查閱資料</tspan></text></g></g></g><g id="g-root-tx__1ha30yizb6kg1-fill" data-item-order="0" transform="translate(158, 134.00006103515625)"><g id="tx__1ha30yizb6kg1-fill-merged" stroke="none" fill="#4e88e7" fill-opacity="1"><g><text style="font: 20px Roboto, sans-serif; white-space: pre;" transform="translate(10, 22)" font-size="20px" font-family="Roboto, sans-serif"><tspan x="2" y="11.61" dominant-baseline="ideographic">病患提供授權</tspan></text></g></g></g><g id="g-root-tx_fhir_13ymil6zb6m0z-fill" data-item-order="0" transform="translate(470, 98.00006103515625)"><g id="tx_fhir_13ymil6zb6m0z-fill-merged" stroke="none" fill="#92bd39" fill-opacity="1"><g><text style="font: 20px Roboto, sans-serif; white-space: pre;" transform="translate(10, 40)" font-size="20px" font-family="Roboto, sans-serif"><tspan x="2" y="-0.39" dominant-baseline="ideographic">依據 FHIR 標準格式上</tspan><tspan x="2" y="23.61" dominant-baseline="ideographic">傳資料</tspan></text></g></g></g><g id="g-root-tx__1hbbz4qzb6mma-fill" data-item-order="0" transform="translate(422, 482.00006103515625)"><g id="tx__1hbbz4qzb6mma-fill-merged" stroke="none" fill="#484848" fill-opacity="1"><g><text style="font: 15px Roboto, sans-serif; white-space: pre;" transform="translate(166, 22)" font-size="15px" font-family="Roboto, sans-serif"><tspan x="-152" y="8.36" dominant-baseline="ideographic">資料在院內系統中顯示</tspan></text></g></g></g><g id="g-root-tx__1uontlmzbm29v-fill" data-item-order="0" transform="translate(422, 38.00006103515625)"><g id="tx__1uontlmzbm29v-fill-merged" stroke="none" fill="#484848" fill-opacity="1"><g><text style="font: bold 25px Roboto, sans-serif; white-space: pre;" transform="translate(88, 28)" font-weight="bold" font-size="25px" font-family="Roboto, sans-serif"><tspan x="-75" y="14.86" dominant-baseline="ideographic">復健門診流程</tspan></text></g></g></g><g id="g-root-ic_2_1hdtsbezbm0p0-fill" data-item-order="0" transform="translate(98, 279.00006103515625)"></g><g id="g-root-ic_desk_1cz9biyzb3t34-fill" data-item-order="0" transform="translate(253.75201416015625, 279.00006103515625)"></g><g id="g-root-ic_2_i0w49mzb3r46-fill" data-item-order="0" transform="translate(410, 279.00006103515625)"></g><g id="g-root-ic_grap_1cw4y3ezb562q-fill" data-item-order="0" transform="translate(566, 279.00006103515625)"></g><g id="g-root-ic_cros_1qa3ct6zb5825-fill" data-item-order="0" transform="translate(722, 279.00006103515625)"></g><g id="g-root-tx__4hbfruzb6jnz-fill" data-item-order="0" transform="translate(110, 446.00006103515625)"><g id="tx__4hbfruzb6jnz-fill-merged" stroke="none" fill="#3cc583" fill-opacity="1"><g><text style="font: 20px Roboto, sans-serif; white-space: pre;" transform="translate(166, 22)" font-size="20px" font-family="Roboto, sans-serif"><tspan x="-142.01" y="11.61" dominant-baseline="ideographic">治療師完成評估</tspan></text></g></g></g><g id="g-root-tx__1lr5h96zb6lu1-fill" data-item-order="0" transform="translate(410, 446.00006103515625)"><g id="tx__1lr5h96zb6lu1-fill-merged" stroke="none" fill="#1eabda" fill-opacity="1"><g><text style="font: 20px Roboto, sans-serif; white-space: pre;" transform="translate(178, 22)" font-size="20px" font-family="Roboto, sans-serif"><tspan x="-162" y="11.61" dominant-baseline="ideographic">資料在系統中呈現</tspan></text></g></g></g><g id="g-root-tx__1hxnezb6kg8-fill" data-item-order="0" transform="translate(122, 482.00006103515625)"><g id="tx__1hxnezb6kg8-fill-merged" stroke="none" fill="#484848" fill-opacity="1"><g><text style="font: 15px Roboto, sans-serif; white-space: pre;" transform="translate(154, 22)" font-size="15px" font-family="Roboto, sans-serif"><tspan x="-137" y="8.36" dominant-baseline="ideographic">治療師記錄評估結果</tspan></text></g></g></g><g id="g-root-cp_0_g-0_18gbct6zbm2h4-stroke" data-item-order="-478213" transform="translate(14, 241.5130615234375)"><g id="cp_0_g-0_18gbct6zbm2h4-stroke" fill="none" stroke-linecap="round" stroke-linejoin="round" stroke-miterlimit="4" stroke="#484848" stroke-width="2" stroke-opacity="1"><g><path d="M 701.5983 34.5L 665.1135 34.5L 652.0469 130.5L 688.5316 130.5L 701.5983 34.5ZM 808.5316 130.5L 862 130.5L 862 154.5L 934.0065 82.5026L 862 10L 862 34.5L 821.5983 34.5L 808.5316 130.5ZM 545.1135 34.5L 509.1033 34.5L 496.0366 130.5L 532.0469 130.5L 545.1135 34.5ZM 389.1033 34.5L 353.1337 34.5L 340.067 130.5L 376.0366 130.5L 389.1033 34.5ZM 233.1337 34.5L 197.5983 34.5L 184.5316 130.5L 220.067 130.5L 233.1337 34.5ZM 77.5983 34.5L 10 34.5L 10 130.5L 64.5316 130.5L 77.5983 34.5Z"></path></g></g></g><g id="g-root-cp_1_g-1_v5hbiyzbm0w9-stroke" data-item-order="-478209" transform="translate(37.99999237060547, 230)"><g id="cp_1_g-1_v5hbiyzbm0w9-stroke" fill="none" stroke-linecap="round" stroke-linejoin="round" stroke-miterlimit="4" stroke="#4e88e7" stroke-width="2" stroke-opacity="1"><g><path d="M 58.500008 10L 178.500008 10L 154.000008 190L 34.000008 190L 58.500008 10Z"></path></g></g><g id="cp_1_g-1_v5hbiyzbm0w9-stroke" fill="none" stroke-linecap="round" stroke-linejoin="round" stroke-miterlimit="4" stroke="#4e88e7" stroke-width="2" stroke-opacity="1"><g><path d="M 173.595589 46L 178.500089 10L 202.000089 46L 173.595589 46Z"></path></g></g><g id="cp_1_g-1_v5hbiyzbm0w9-stroke" fill="none" stroke-linecap="round" stroke-linejoin="round" stroke-miterlimit="4" stroke="#4e88e7" stroke-width="2" stroke-opacity="1"><g><path d="M 34.000008 190L 10.000008 142L 40.500008 142L 34.000008 190Z"></path></g></g></g><g id="g-root-cp_2_g-2_v5hbiyzbm0wa-stroke" data-item-order="-478201" transform="translate(193.53500366210938, 230)"><g id="cp_2_g-2_v5hbiyzbm0wa-stroke" fill="none" stroke-linecap="round" stroke-linejoin="round" stroke-miterlimit="4" stroke="#3cc583" stroke-width="2" stroke-opacity="1"><g><path d="M 58.5 10L 178.5 10L 154 190L 34 190L 58.5 10Z"></path></g></g><g id="cp_2_g-2_v5hbiyzbm0wa-stroke" fill="none" stroke-linecap="round" stroke-linejoin="round" stroke-miterlimit="4" stroke="#3cc583" stroke-width="2" stroke-opacity="1"><g><path d="M 173.595581 46L 178.500081 10L 202.000081 46L 173.595581 46Z"></path></g></g><g id="cp_2_g-2_v5hbiyzbm0wa-stroke" fill="none" stroke-linecap="round" stroke-linejoin="round" stroke-miterlimit="4" stroke="#3cc583" stroke-width="2" stroke-opacity="1"><g><path d="M 34 190L 10 142L 40.5 142L 34 190Z"></path></g></g></g><g id="g-root-cp_3_g-3_qpnteizbm1oj-stroke" data-item-order="-478193" transform="translate(349.50396728515625, 230)"><g id="cp_3_g-3_qpnteizbm1oj-stroke" fill="none" stroke-linecap="round" stroke-linejoin="round" stroke-miterlimit="4" stroke="#92bd39" stroke-width="2" stroke-opacity="1"><g><path d="M 58.5 10L 178.5 10L 154 190L 34 190L 58.5 10Z"></path></g></g><g id="cp_3_g-3_qpnteizbm1oj-stroke" fill="none" stroke-linecap="round" stroke-linejoin="round" stroke-miterlimit="4" stroke="#92bd39" stroke-width="2" stroke-opacity="1"><g><path d="M 173.595581 46L 178.500081 10L 202.000081 46L 173.595581 46Z"></path></g></g><g id="cp_3_g-3_qpnteizbm1oj-stroke" fill="none" stroke-linecap="round" stroke-linejoin="round" stroke-miterlimit="4" stroke="#92bd39" stroke-width="2" stroke-opacity="1"><g><path d="M 34 190L 10 142L 40.5 142L 34 190Z"></path></g></g></g><g id="g-root-cp_4_g-4_hu0t5mzbm2h8-stroke" data-item-order="-478185" transform="translate(505.5159912109375, 230)"><g id="cp_4_g-4_hu0t5mzbm2h8-stroke" fill="none" stroke-linecap="round" stroke-linejoin="round" stroke-miterlimit="4" stroke="#1eabda" stroke-width="2" stroke-opacity="1"><g><path d="M 58.5 10L 178.5 10L 154 190L 34 190L 58.5 10Z"></path></g></g><g id="cp_4_g-4_hu0t5mzbm2h8-stroke" fill="none" stroke-linecap="round" stroke-linejoin="round" stroke-miterlimit="4" stroke="#1eabda" stroke-width="2" stroke-opacity="1"><g><path d="M 173.595581 46L 178.500081 10L 202.000081 46L 173.595581 46Z"></path></g></g><g id="cp_4_g-4_hu0t5mzbm2h8-stroke" fill="none" stroke-linecap="round" stroke-linejoin="round" stroke-miterlimit="4" stroke="#1eabda" stroke-width="2" stroke-opacity="1"><g><path d="M 34 190L 10 142L 40.5 142L 34 190Z"></path></g></g></g><g id="g-root-cp_5_g-5_dets4azbm03p-stroke" data-item-order="-478177" transform="translate(662, 230)"><g id="cp_5_g-5_dets4azbm03p-stroke" fill="none" stroke-linecap="round" stroke-linejoin="round" stroke-miterlimit="4" stroke="#7f64ea" stroke-width="2" stroke-opacity="1"><g><path d="M 58.5 10L 178.5 10L 154 190L 34 190L 58.5 10Z"></path></g></g><g id="cp_5_g-5_dets4azbm03p-stroke" fill="none" stroke-linecap="round" stroke-linejoin="round" stroke-miterlimit="4" stroke="#7f64ea" stroke-width="2" stroke-opacity="1"><g><path d="M 173.595581 46L 178.500081 10L 202.000081 46L 173.595581 46Z"></path></g></g><g id="cp_5_g-5_dets4azbm03p-stroke" fill="none" stroke-linecap="round" stroke-linejoin="round" stroke-miterlimit="4" stroke="#7f64ea" stroke-width="2" stroke-opacity="1"><g><path d="M 34 190L 10 142L 40.5 142L 34 190Z"></path></g></g></g><g id="g-root-cp_1_g-1_1_dets4azbm03q-stroke" data-item-order="-478153" transform="translate(146, 134)"><g id="cp_1_g-1_1_dets4azbm03q-stroke" fill="none" stroke-linecap="round" stroke-linejoin="round" stroke-miterlimit="4" stroke="#484848" stroke-width="2" stroke-opacity="1"><g><path d="M 10 10L 10 106"></path></g></g></g><g id="g-root-cp_3_g-3_1_4j6rvezbm0wf-stroke" data-item-order="-478143" transform="translate(458, 98.00006103515625)"><g id="cp_3_g-3_1_4j6rvezbm0wf-stroke" fill="none" stroke-linecap="round" stroke-linejoin="round" stroke-miterlimit="4" stroke="#484848" stroke-width="2" stroke-opacity="1"><g><path d="M 10 10L 10 142"></path></g></g></g><g id="g-root-cp_5_g-5_1_8z09zuzbm0w0-stroke" data-item-order="-478133" transform="translate(770, 134)"><g id="cp_5_g-5_1_8z09zuzbm0w0-stroke" fill="none" stroke-linecap="round" stroke-linejoin="round" stroke-miterlimit="4" stroke="#484848" stroke-width="2" stroke-opacity="1"><g><path d="M 10 10L 10 106"></path></g></g></g><g id="g-root-cp_2_g-2_1_3d9qyzbm1op-stroke" data-item-order="-478123" transform="translate(278, 410)"><g id="cp_2_g-2_1_3d9qyzbm1op-stroke" fill="none" stroke-linecap="round" stroke-linejoin="round" stroke-miterlimit="4" stroke="#484848" stroke-width="2" stroke-opacity="1"><g><path d="M 10 10L 10 106"></path></g></g></g><g id="g-root-cp_4_g-4_1_3d9qyzbm1oq-stroke" data-item-order="-478113" transform="translate(590, 410)"><g id="cp_4_g-4_1_3d9qyzbm1oq-stroke" fill="none" stroke-linecap="round" stroke-linejoin="round" stroke-miterlimit="4" stroke="#484848" stroke-width="2" stroke-opacity="1"><g><path d="M 10 10L 10 106"></path></g></g></g><g id="g-root-tx__18eg0pmzb6l8q-stroke" data-item-order="0" transform="translate(158, 170.00006103515625)"></g><g id="g-root-tx_4j7auywtr47j-stroke" data-item-order="0" transform="translate(470, 170.00006103515625)"></g><g id="g-root-tx__hs5h22zb6l8u-stroke" data-item-order="0" transform="translate(782, 170.00006103515625)"></g><g id="g-root-tx__qnshayzb6kg5-stroke" data-item-order="0" transform="translate(782, 134.00006103515625)"></g><g id="g-root-tx__1ha30yizb6kg1-stroke" data-item-order="0" transform="translate(158, 134.00006103515625)"></g><g id="g-root-tx_fhir_13ymil6zb6m0z-stroke" data-item-order="0" transform="translate(470, 98.00006103515625)"></g><g id="g-root-tx__1hbbz4qzb6mma-stroke" data-item-order="0" transform="translate(422, 482.00006103515625)"></g><g id="g-root-tx__1uontlmzbm29v-stroke" data-item-order="0" transform="translate(422, 38.00006103515625)"></g><g id="g-root-ic_2_1hdtsbezbm0p0-stroke" data-item-order="0" transform="translate(98, 279.00006103515625)"><g id="ic_2_1hdtsbezbm0p0-stroke" fill="none" stroke-linecap="round" stroke-linejoin="round" stroke-miterlimit="4" stroke="#4e88e7" stroke-width="2" stroke-opacity="1"><g><path d="M 10 10M 42.4804 22.999031L 32.148849 22.999031L 32.148849 31.773788L 23.37439 31.773788L 23.37439 42.1054L 32.148849 42.1054L 32.148849 50.879799L 42.4804 50.879799L 42.4804 42.1054L 51.2551 42.1054L 51.2551 31.773788L 42.4804 31.773788L 42.4804 22.999031ZM 44.725601 71.324203L 17.064939 71.324203C 15.87148 71.324203 14.72686 70.850197 13.88296 70.006302C 13.039061 69.162399 12.564939 68.017593 12.564939 66.824203L 12.564939 17.32423C 12.564939 16.130741 13.039061 14.98615 13.88296 14.14225C 14.72686 13.29832 15.87148 12.824218 17.064939 12.824218L 48.952 12.824218C 50.144501 12.824473 51.288399 13.29817 52.132 14.14123L 60.748001 22.757229C 61.591003 23.6008 62.064701 24.744579 62.064999 25.937229L 62.064999 38.32291M 51.2551 78.9319C 51.2551 75.188805 52.742203 71.598701 55.389099 68.952103C 58.035698 66.305199 61.625797 64.8181 65.368904 64.8181C 69.112297 64.8181 72.702103 66.305199 75.348999 68.952103C 77.995903 71.598701 79.483002 75.188805 79.483002 78.9319L 51.2551 78.9319ZM 65.369202 64.818405C 70.565804 64.818405 74.778397 60.605804 74.778397 55.409203C 74.778397 50.212601 70.565804 46 65.369202 46C 60.1726 46 55.959698 50.212601 55.959698 55.409203C 55.959698 60.605804 60.1726 64.818405 65.369202 64.818405Z"></path></g></g></g><g id="g-root-ic_desk_1cz9biyzb3t34-stroke" data-item-order="0" transform="translate(253.75201416015625, 279.00006103515625)"><g id="ic_desk_1cz9biyzb3t34-stroke" fill="none" stroke-linecap="round" stroke-linejoin="round" stroke-miterlimit="4" stroke="#3cc583" stroke-width="2" stroke-opacity="1"><g><path d="M 41.876499 43.75C 50.574997 43.75 57.626499 36.698502 57.626499 28C 57.626499 19.301529 50.574997 12.25 41.876499 12.25C 33.177971 12.25 26.126471 19.301529 26.126471 28C 26.126471 36.698502 33.177971 43.75 41.876499 43.75ZM 28.286381 19.990059C 30.726879 22.52323 33.653168 24.538239 36.890289 25.91452C 40.127499 27.290829 43.6087 28.00012 47.126499 28.000061C 50.684498 27.99235 54.204399 27.267941 57.476498 25.87006M 12.626464 79.75C 12.626464 71.992302 15.70816 64.552597 21.1936 59.067101C 26.679039 53.5816 34.118889 50.5 41.876499 50.5C 44.204201 50.5 46.503399 50.7775 48.729698 51.314201M 44.126499 79.75L 44.126499 50.59M 26.126471 66.25L 35.126472 66.25M 30.626471 61.75L 30.626471 70.75M 79.002098 54.5989L 53.939201 54.5989C 53.3722 54.5989 52.912601 55.057899 52.912601 55.624001L 52.912601 72.025299C 52.912601 72.5914 53.3722 73.0504 53.939201 73.0504L 78.5755 73.0504C 79.142502 73.0504 79.602104 72.5914 79.602104 72.025299L 79.602104 55.198902C 79.602104 54.867699 79.333298 54.5989 79.002098 54.5989ZM 10 10M 66.2575 73.0504L 66.257202 79.670197M 60.098495 79.75L 72.416504 79.75"></path></g></g></g><g id="g-root-ic_2_i0w49mzb3r46-stroke" data-item-order="0" transform="translate(410, 279.00006103515625)"><g id="ic_2_i0w49mzb3r46-stroke" fill="none" stroke-linecap="round" stroke-linejoin="round" stroke-miterlimit="4" stroke="#92bd39" stroke-width="2" stroke-opacity="1"><g><path d="M 24.25 41.500301C 30.877419 41.500301 36.25 39.351341 36.25 36.700359C 36.25 34.049408 30.877419 31.90036 24.25 31.90036C 17.62258 31.90036 12.25 34.049408 12.25 36.700359C 12.25 39.351341 17.62258 41.500301 24.25 41.500301ZM 12.25 36.699909L 12.25 55.900002C 12.25 58.600002 17.65 60.699997 24.25 60.699997C 30.849998 60.699997 36.25 58.600002 36.25 55.900002L 36.25 36.699909M 71.804199 20.1199C 76.045898 20.1199 79.4842 18.25741 79.4842 15.95992C 79.4842 13.6624 76.045898 11.799904 71.804199 11.799904C 67.562798 11.799904 64.124207 13.6624 64.124207 15.95992C 64.124207 18.25741 67.562798 20.1199 71.804199 20.1199ZM 64.124207 15.96007L 64.124207 26.84005C 64.124207 29.080061 67.644402 31.000061 71.804199 31.000061C 75.964302 31.000061 79.4842 29.080061 79.4842 26.84005L 79.4842 15.96007M 71.804199 45.040302C 76.045898 45.040302 79.4842 43.177601 79.4842 40.880199C 79.4842 38.58271 76.045898 36.720222 71.804199 36.720222C 67.562798 36.720222 64.124207 38.58271 64.124207 40.880199C 64.124207 43.177601 67.562798 45.040302 71.804199 45.040302ZM 64.124207 40.880501L 64.124207 51.7603C 64.124207 54.000397 67.644402 55.920399 71.804199 55.920399C 75.964302 55.920399 79.4842 54.000397 79.4842 51.7603L 79.4842 40.880501M 71.804199 69.319901C 76.045898 69.319901 79.4842 67.457504 79.4842 65.159805C 79.4842 62.8624 76.045898 61 71.804199 61C 67.562798 61 64.124207 62.8624 64.124207 65.159805C 64.124207 67.457504 67.562798 69.319901 71.804199 69.319901ZM 64.124207 65.160095L 64.124207 76.040199C 64.124207 78.279999 67.644402 80.199997 71.804199 80.199997C 75.964302 80.199997 79.4842 78.279999 79.4842 76.040199L 79.4842 65.160095M 56.937401 21.1L 50.937401 21.1L 50.937401 70.899994L 56.937401 70.899994M 56.937401 46L 43.437401 46M 12.25 46.393299C 12.25 48.930702 17.43919 51.006401 24.250061 51.006401C 31.0609 51.006401 36.250088 48.930702 36.250088 46.393299"></path></g></g></g><g id="g-root-ic_grap_1cw4y3ezb562q-stroke" data-item-order="0" transform="translate(566, 279.00006103515625)"><g id="ic_grap_1cw4y3ezb562q-stroke" fill="none" stroke-linecap="round" stroke-linejoin="round" stroke-miterlimit="4" stroke="#1eabda" stroke-width="2" stroke-opacity="1"><g><path d="M 50.5 31C 50.500004 36.798988 55.201012 41.5 61 41.5C 66.798988 41.5 71.5 36.798988 71.5 31.000002C 71.5 25.201012 66.798988 20.5 61 20.5C 55.201012 20.5 50.500004 25.201012 50.500004 31.000002M 20.5 71.5L 27.099998 62.250999C 27.334431 61.922829 27.691139 61.702885 28.089634 61.640793C 28.488131 61.578712 28.894842 61.679703 29.218 61.920998L 32.799999 64.600006C 33.462742 65.097054 34.402943 64.962738 34.900002 64.300003L 43 53.5M 63.252998 20.743L 61 31L 71.422005 29.724998M 55 50.5L 70 50.5C 70 50.5 71.5 50.5 71.5 52L 71.5 70C 71.5 70 71.5 71.5 70 71.5L 55 71.5C 55 71.5 53.5 71.5 53.5 70L 53.5 52C 53.5 52 53.5 50.5 55 50.5M 59.5 59.5L 65.5 59.5M 59.5 65.5L 62.5 65.5M 22 20.5L 37 20.5C 37 20.5 38.5 20.5 38.5 22L 38.5 40C 38.5 40 38.5 41.5 37 41.5L 22 41.5C 22 41.5 20.5 41.5 20.5 40L 20.5 22C 20.5 22 20.5 20.5 22 20.5M 26.5 26.5L 32.5 26.5M 26.5 32.5L 29.5 32.5M 14.5 11.5L 77.5 11.5C 77.5 11.5 80.5 11.5 80.5 14.5L 80.5 77.5C 80.5 77.5 80.5 80.5 77.5 80.5L 14.5 80.5C 14.5 80.5 11.5 80.5 11.5 77.5L 11.5 14.5C 11.5 14.5 11.5 11.5 14.5 11.5"></path></g></g></g><g id="g-root-ic_cros_1qa3ct6zb5825-stroke" data-item-order="0" transform="translate(722, 279.00006103515625)"><g id="ic_cros_1qa3ct6zb5825-stroke" fill="none" stroke-linecap="round" stroke-linejoin="round" stroke-miterlimit="4" stroke="#7f64ea" stroke-width="2" stroke-opacity="1"><g><path d="M 70.8946 13.43113L 61.6996 13.43113L 61.6996 21.24058L 53.890301 21.24058L 53.890301 30.435581L 61.6996 30.435581L 61.6996 38.244698L 70.8946 38.244698L 70.8946 30.435581L 78.703903 30.435581L 78.703903 21.24058L 70.8946 21.24058L 70.8946 13.43113ZM 13.29664 14.50777L 13.29664 78.568901L 77.357803 78.568901M 10 10M 22.72069 59.8339L 34.57444 69.330696L 53.540501 46.538498L 68.850403 59.8339M 34.507572 19.621L 24.659111 19.621M 39.679928 29.46916L 24.659679 29.46916"></path></g></g></g><g id="g-root-tx__4hbfruzb6jnz-stroke" data-item-order="0" transform="translate(110, 446.00006103515625)"></g><g id="g-root-tx__1lr5h96zb6lu1-stroke" data-item-order="0" transform="translate(410, 446.00006103515625)"></g><g id="g-root-tx__1hxnezb6kg8-stroke" data-item-order="0" transform="translate(122, 482.00006103515625)"></g></g></g></svg>